<svg version="1.1" id="Layer_1" xmlns="http://www.w3.org/2000/svg" xmlns:xlink="http://www.w3.org/1999/xlink" x="0px" y="0px"
	 width="100%" viewBox="0 0 750 750" enable-background="new 0 0 750 750" xml:space="preserve">
<path fill="#FFFFFF" opacity="1.000000" stroke="none" 
	d="
M439.000000,751.000000 
	C292.666656,751.000000 146.833328,751.000000 1.000000,751.000000 
	C1.000000,501.000000 1.000000,251.000000 1.000000,1.000000 
	C251.000000,1.000000 501.000000,1.000000 751.000000,1.000000 
	C751.000000,251.000000 751.000000,501.000000 751.000000,751.000000 
	C647.166687,751.000000 543.333313,751.000000 439.000000,751.000000 
M493.774689,423.913086 
	C493.784332,405.257812 493.870392,386.602112 493.768433,367.947449 
	C493.723511,359.724182 492.898743,351.524414 487.337006,344.889587 
	C475.671692,330.973511 453.489166,328.512299 439.058014,339.506683 
	C435.391602,342.299927 432.130005,345.624512 428.467621,348.896881 
	C422.272766,338.214386 412.415039,334.455994 401.001038,333.012054 
	C389.106934,331.507416 379.960083,337.007263 370.582520,344.739532 
	C370.582520,340.928284 370.582520,338.209259 370.582520,335.381836 
	C360.150055,335.381836 350.231049,335.381836 340.164825,335.381836 
	C340.164825,365.465637 340.164825,395.312317 340.164825,425.200653 
	C350.439972,425.200653 360.374359,425.200653 370.781586,425.200653 
	C370.781586,423.155457 370.781372,421.371307 370.781586,419.587128 
	C370.783356,404.263000 370.679962,388.937897 370.824463,373.615143 
	C370.919373,363.552856 376.526062,357.437469 385.277649,357.339996 
	C394.285278,357.239624 400.684174,363.353180 401.012909,373.101257 
	C401.371948,383.749634 401.199005,394.416351 401.235718,405.075104 
	C401.258484,411.692200 401.239960,418.309418 401.239960,425.142151 
	C411.749847,425.142151 421.802582,425.142151 432.157593,425.142151 
	C432.157593,407.678436 432.109436,390.538086 432.176727,373.398163 
	C432.213654,363.990173 437.780731,357.826416 446.408142,357.366730 
	C454.939911,356.912109 461.746155,362.479553 462.316467,371.750732 
	C463.031036,383.366669 462.746063,395.045349 462.847107,406.697357 
	C462.900208,412.818756 462.856506,418.940979 462.856506,424.785736 
	C473.389282,424.785736 483.465210,424.785736 493.774689,423.913086 
M603.026917,402.506470 
	C608.505371,390.287048 608.906616,377.687195 605.280273,364.995178 
	C598.542236,341.412170 574.095703,327.854645 550.689392,334.940552 
	C544.683716,336.758698 539.162170,340.175903 533.057007,343.027161 
	C533.057007,320.193146 533.057007,297.309052 533.057007,274.257721 
	C522.544373,274.257721 512.484741,274.257721 502.354553,274.257721 
	C502.354553,324.719421 502.354553,374.913025 502.354553,425.460815 
	C511.808441,425.460815 520.951477,425.471161 530.094299,425.442596 
	C530.891663,425.440094 531.688232,425.181580 533.088806,424.936218 
	C533.088806,421.873718 533.088806,418.892426 533.088806,416.403625 
	C538.591614,419.703094 543.477539,423.725983 549.084351,425.799500 
	C569.979431,433.526917 591.610718,424.136810 603.026917,402.506470 
M685.580994,335.903198 
	C669.537231,329.619324 655.088318,332.419159 641.693237,345.038422 
	C641.693237,320.462860 641.693237,297.386292 641.693237,274.357269 
	C631.220581,274.357269 621.159241,274.357269 611.194336,274.357269 
	C611.194336,324.829071 611.194336,374.925903 611.194336,425.100891 
	C621.526733,425.100891 631.593445,425.100891 641.907959,425.100891 
	C641.907959,423.245392 641.907715,421.756104 641.907959,420.266846 
	C641.910278,404.934662 641.833801,389.601868 641.947021,374.270508 
	C642.006958,366.154816 648.220459,359.204193 656.840942,357.160400 
	C664.015991,355.459259 670.834900,358.534241 674.511597,365.978516 
	C676.060059,369.113678 676.734009,372.965790 676.784973,376.506683 
	C677.017273,392.649414 676.886902,408.797333 676.886902,425.167419 
	C687.316833,425.167419 697.403259,425.167419 707.847168,425.167419 
	C707.847168,405.898041 707.824097,386.926788 707.854431,367.955597 
	C707.879150,352.454681 701.293457,341.464600 685.580994,335.903198 
M144.898987,385.500031 
	C144.898987,368.936859 144.898987,352.373718 144.898987,335.704590 
	C134.243866,335.704590 124.304466,335.704590 114.170906,335.704590 
	C113.927849,338.429443 113.703506,340.944519 113.451187,343.773285 
	C92.013832,326.613647 65.610321,331.663422 51.657391,347.262177 
	C36.841454,363.825714 35.043793,391.893951 47.865639,409.286285 
	C55.732872,419.957886 65.750778,426.705322 79.349136,428.002106 
	C92.715477,429.276703 104.023643,425.226135 114.308075,415.091553 
	C114.308075,419.437012 114.308075,422.363342 114.308075,425.542206 
	C124.593773,425.542206 134.497284,425.542206 144.898987,425.542206 
	C144.898987,412.379089 144.898987,399.439575 144.898987,385.500031 
M286.856567,336.554688 
	C265.570129,328.577606 245.351318,334.407135 233.025223,352.299103 
	C225.610321,363.062225 223.960312,375.094147 224.993607,387.968628 
	C227.130508,414.593597 255.266891,434.615326 280.700134,426.635864 
	C287.255890,424.579041 293.103455,420.264984 299.470795,416.884613 
	C299.470795,419.418060 299.470795,422.346283 299.470795,425.508911 
	C309.800934,425.508911 319.687103,425.508911 329.796051,425.508911 
	C329.796051,395.493927 329.796051,365.764191 329.796051,335.766815 
	C319.555908,335.766815 309.486847,335.766815 299.242188,335.766815 
	C299.105286,338.469299 298.982819,340.886475 298.843872,343.628632 
	C294.856354,341.249359 291.199860,339.067657 286.856567,336.554688 
M186.943558,371.916199 
	C192.548187,358.686829 204.479248,355.790314 220.579987,363.953339 
	C224.772446,355.363281 228.961472,346.780243 233.206802,338.081848 
	C214.649139,328.284332 199.305161,332.449921 185.360107,348.161560 
	C185.360107,342.925079 185.360107,339.160431 185.360107,335.381744 
	C174.934082,335.381744 164.999939,335.381744 154.816895,335.381744 
	C154.816895,365.379486 154.816895,395.134796 154.816895,425.181061 
	C165.006805,425.181061 175.066956,425.181061 185.604919,425.181061 
	C185.604919,423.287170 185.605087,421.663757 185.604904,420.040344 
	C185.603485,406.875214 185.543640,393.709625 185.650070,380.545349 
	C185.671219,377.929779 186.329407,375.319366 186.943558,371.916199 
M62.965927,314.458282 
	C85.548401,314.458282 108.130875,314.458282 130.621399,314.458282 
	C130.621399,306.882782 130.621399,299.981995 130.621399,293.253204 
	C106.708847,293.253204 83.158447,293.253204 59.277592,293.253204 
	C59.277592,299.570282 59.147644,305.545471 59.402576,311.504181 
	C59.446232,312.524658 61.132435,313.474854 62.965927,314.458282 
z"/>
<path fill="#030303" opacity="1.000000" stroke="none" 
	d="
M493.657898,424.349426 
	C483.465210,424.785736 473.389282,424.785736 462.856506,424.785736 
	C462.856506,418.940979 462.900208,412.818756 462.847107,406.697357 
	C462.746063,395.045349 463.031036,383.366669 462.316467,371.750732 
	C461.746155,362.479553 454.939911,356.912109 446.408142,357.366730 
	C437.780731,357.826416 432.213654,363.990173 432.176727,373.398163 
	C432.109436,390.538086 432.157593,407.678436 432.157593,425.142151 
	C421.802582,425.142151 411.749847,425.142151 401.239960,425.142151 
	C401.239960,418.309418 401.258484,411.692200 401.235718,405.075104 
	C401.199005,394.416351 401.371948,383.749634 401.012909,373.101257 
	C400.684174,363.353180 394.285278,357.239624 385.277649,357.339996 
	C376.526062,357.437469 370.919373,363.552856 370.824463,373.615143 
	C370.679962,388.937897 370.783356,404.263000 370.781586,419.587128 
	C370.781372,421.371307 370.781586,423.155457 370.781586,425.200653 
	C360.374359,425.200653 350.439972,425.200653 340.164825,425.200653 
	C340.164825,395.312317 340.164825,365.465637 340.164825,335.381836 
	C350.231049,335.381836 360.150055,335.381836 370.582520,335.381836 
	C370.582520,338.209259 370.582520,340.928284 370.582520,344.739532 
	C379.960083,337.007263 389.106934,331.507416 401.001038,333.012054 
	C412.415039,334.455994 422.272766,338.214386 428.467621,348.896881 
	C432.130005,345.624512 435.391602,342.299927 439.058014,339.506683 
	C453.489166,328.512299 475.671692,330.973511 487.337006,344.889587 
	C492.898743,351.524414 493.723511,359.724182 493.768433,367.947449 
	C493.870392,386.602112 493.784332,405.257812 493.657898,424.349426 
z"/>
<path fill="#020202" opacity="1.000000" stroke="none" 
	d="
M602.852295,402.838623 
	C591.610718,424.136810 569.979431,433.526917 549.084351,425.799500 
	C543.477539,423.725983 538.591614,419.703094 533.088806,416.403625 
	C533.088806,418.892426 533.088806,421.873718 533.088806,424.936218 
	C531.688232,425.181580 530.891663,425.440094 530.094299,425.442596 
	C520.951477,425.471161 511.808441,425.460815 502.354553,425.460815 
	C502.354553,374.913025 502.354553,324.719421 502.354553,274.257721 
	C512.484741,274.257721 522.544373,274.257721 533.057007,274.257721 
	C533.057007,297.309052 533.057007,320.193146 533.057007,343.027161 
	C539.162170,340.175903 544.683716,336.758698 550.689392,334.940552 
	C574.095703,327.854645 598.542236,341.412170 605.280273,364.995178 
	C608.906616,377.687195 608.505371,390.287048 602.852295,402.838623 
M573.879333,373.991882 
	C573.419922,372.926147 573.047119,371.812408 572.487488,370.802185 
	C568.012451,362.724609 561.136169,358.973358 551.926392,359.550842 
	C543.029297,360.108643 536.776062,364.772003 533.824646,372.912537 
	C530.796082,381.265839 531.990662,389.360138 538.495605,396.004181 
	C544.724792,402.366577 556.040039,403.890320 563.972717,399.613831 
	C572.517334,395.007477 576.169250,385.966705 573.879333,373.991882 
z"/>
<path fill="#030303" opacity="1.000000" stroke="none" 
	d="
M685.955322,336.010406 
	C701.293457,341.464600 707.879150,352.454681 707.854431,367.955597 
	C707.824097,386.926788 707.847168,405.898041 707.847168,425.167419 
	C697.403259,425.167419 687.316833,425.167419 676.886902,425.167419 
	C676.886902,408.797333 677.017273,392.649414 676.784973,376.506683 
	C676.734009,372.965790 676.060059,369.113678 674.511597,365.978516 
	C670.834900,358.534241 664.015991,355.459259 656.840942,357.160400 
	C648.220459,359.204193 642.006958,366.154816 641.947021,374.270508 
	C641.833801,389.601868 641.910278,404.934662 641.907959,420.266846 
	C641.907715,421.756104 641.907959,423.245392 641.907959,425.100891 
	C631.593445,425.100891 621.526733,425.100891 611.194336,425.100891 
	C611.194336,374.925903 611.194336,324.829071 611.194336,274.357269 
	C621.159241,274.357269 631.220581,274.357269 641.693237,274.357269 
	C641.693237,297.386292 641.693237,320.462860 641.693237,345.038422 
	C655.088318,332.419159 669.537231,329.619324 685.955322,336.010406 
z"/>
<path fill="#040404" opacity="1.000000" stroke="none" 
	d="
M144.898987,386.000061 
	C144.898987,399.439575 144.898987,412.379089 144.898987,425.542206 
	C134.497284,425.542206 124.593773,425.542206 114.308075,425.542206 
	C114.308075,422.363342 114.308075,419.437012 114.308075,415.091553 
	C104.023643,425.226135 92.715477,429.276703 79.349136,428.002106 
	C65.750778,426.705322 55.732872,419.957886 47.865639,409.286285 
	C35.043793,391.893951 36.841454,363.825714 51.657391,347.262177 
	C65.610321,331.663422 92.013832,326.613647 113.451187,343.773285 
	C113.703506,340.944519 113.927849,338.429443 114.170906,335.704590 
	C124.304466,335.704590 134.243866,335.704590 144.898987,335.704590 
	C144.898987,352.373718 144.898987,368.936859 144.898987,386.000061 
M90.074768,401.700409 
	C102.813431,403.042297 112.652939,395.894684 114.208282,384.169342 
	C115.772888,372.374146 108.626137,361.699188 97.933701,359.860260 
	C85.431267,357.710022 74.911804,364.571716 72.539375,376.424591 
	C70.104439,388.589752 76.874657,398.776978 90.074768,401.700409 
z"/>
<path fill="#040304" opacity="1.000000" stroke="none" 
	d="
M287.199982,336.720306 
	C291.199860,339.067657 294.856354,341.249359 298.843872,343.628632 
	C298.982819,340.886475 299.105286,338.469299 299.242188,335.766815 
	C309.486847,335.766815 319.555908,335.766815 329.796051,335.766815 
	C329.796051,365.764191 329.796051,395.493927 329.796051,425.508911 
	C319.687103,425.508911 309.800934,425.508911 299.470795,425.508911 
	C299.470795,422.346283 299.470795,419.418060 299.470795,416.884613 
	C293.103455,420.264984 287.255890,424.579041 280.700134,426.635864 
	C255.266891,434.615326 227.130508,414.593597 224.993607,387.968628 
	C223.960312,375.094147 225.610321,363.062225 233.025223,352.299103 
	C245.351318,334.407135 265.570129,328.577606 287.199982,336.720306 
M260.971436,368.633331 
	C259.838318,372.876740 257.934204,377.083832 257.732300,381.371094 
	C257.309021,390.358032 262.803741,397.931549 270.654083,400.644226 
	C279.607178,403.737976 289.044922,401.438110 294.798553,394.760498 
	C300.193115,388.499634 301.299652,377.671600 297.281738,370.461914 
	C289.633698,356.738434 271.999237,355.542145 260.971436,368.633331 
z"/>
<path fill="#040404" opacity="1.000000" stroke="none" 
	d="
M186.818695,372.311401 
	C186.329407,375.319366 185.671219,377.929779 185.650070,380.545349 
	C185.543640,393.709625 185.603485,406.875214 185.604904,420.040344 
	C185.605087,421.663757 185.604919,423.287170 185.604919,425.181061 
	C175.066956,425.181061 165.006805,425.181061 154.816895,425.181061 
	C154.816895,395.134796 154.816895,365.379486 154.816895,335.381744 
	C164.999939,335.381744 174.934082,335.381744 185.360107,335.381744 
	C185.360107,339.160431 185.360107,342.925079 185.360107,348.161560 
	C199.305161,332.449921 214.649139,328.284332 233.206802,338.081848 
	C228.961472,346.780243 224.772446,355.363281 220.579987,363.953339 
	C204.479248,355.790314 192.548187,358.686829 186.818695,372.311401 
z"/>
<path fill="#030303" opacity="1.000000" stroke="none" 
	d="
M62.512890,314.457886 
	C61.132435,313.474854 59.446232,312.524658 59.402576,311.504181 
	C59.147644,305.545471 59.277592,299.570282 59.277592,293.253204 
	C83.158447,293.253204 106.708847,293.253204 130.621399,293.253204 
	C130.621399,299.981995 130.621399,306.882782 130.621399,314.458282 
	C108.130875,314.458282 85.548401,314.458282 62.512890,314.457886 
z"/>
<path fill="#FBFBFB" opacity="1.000000" stroke="none" 
	d="
M573.939453,374.391479 
	C576.169250,385.966705 572.517334,395.007477 563.972717,399.613831 
	C556.040039,403.890320 544.724792,402.366577 538.495605,396.004181 
	C531.990662,389.360138 530.796082,381.265839 533.824646,372.912537 
	C536.776062,364.772003 543.029297,360.108643 551.926392,359.550842 
	C561.136169,358.973358 568.012451,362.724609 572.487488,370.802185 
	C573.047119,371.812408 573.419922,372.926147 573.939453,374.391479 
z"/>
<path fill="#FBFBFB" opacity="1.000000" stroke="none" 
	d="
M89.657425,401.627350 
	C76.874657,398.776978 70.104439,388.589752 72.539375,376.424591 
	C74.911804,364.571716 85.431267,357.710022 97.933701,359.860260 
	C108.626137,361.699188 115.772888,372.374146 114.208282,384.169342 
	C112.652939,395.894684 102.813431,403.042297 89.657425,401.627350 
z"/>
<path fill="#FBFBFB" opacity="1.000000" stroke="none" 
	d="
M261.183502,368.330383 
	C271.999237,355.542145 289.633698,356.738434 297.281738,370.461914 
	C301.299652,377.671600 300.193115,388.499634 294.798553,394.760498 
	C289.044922,401.438110 279.607178,403.737976 270.654083,400.644226 
	C262.803741,397.931549 257.309021,390.358032 257.732300,381.371094 
	C257.934204,377.083832 259.838318,372.876740 261.183502,368.330383 
z"/>
</svg>