<svg version="1.1" id="Layer_1" xmlns="http://www.w3.org/2000/svg" xmlns:xlink="http://www.w3.org/1999/xlink" x="0px" y="0px"
	 width="100%" viewBox="0 0 736 736" enable-background="new 0 0 736 736" xml:space="preserve">
<path fill="#000000" opacity="1.000000" stroke="none" 
	d="
M601.018066,98.945297 
	C608.199951,104.349594 614.941956,109.465012 620.325806,116.590645 
	C624.306702,121.859604 630.900085,125.077019 635.922607,129.654968 
	C643.418030,136.486984 650.596863,143.712708 655.239868,152.909531 
	C656.370605,155.149063 658.743774,155.160751 660.140869,156.871277 
	C665.949768,163.983505 670.516113,171.826889 674.761475,179.931305 
	C676.882812,183.980988 679.631531,187.719940 682.282349,191.467941 
	C684.026367,193.933853 685.780090,196.396622 686.690857,199.265045 
	C692.774170,218.422928 701.642944,236.547333 706.462830,256.239258 
	C710.645203,273.326385 715.753113,290.185730 718.905151,307.536255 
	C720.118896,314.217590 721.583618,320.929565 722.536377,327.575470 
	C724.646301,342.292786 727.224915,357.157684 724.425537,372.150818 
	C724.334839,372.636658 724.251648,373.180542 724.374695,373.641388 
	C727.206299,384.244263 723.889160,394.646454 723.359497,405.136505 
	C723.190674,408.480560 723.386536,411.731110 724.150635,415.038757 
	C725.905579,422.635101 724.213623,429.984131 721.788330,437.171112 
	C719.856995,442.894440 719.904175,448.955200 718.490906,454.798920 
	C716.958618,461.134979 713.849792,467.271088 714.947388,474.149109 
	C715.116028,475.205841 714.715576,476.589935 714.099731,477.498169 
	C708.630554,485.565094 707.738464,494.968842 705.521545,504.112183 
	C703.188049,513.736633 699.024353,522.929504 695.499207,532.250061 
	C690.774414,544.742615 681.535400,554.399414 674.255737,565.268005 
	C669.094055,572.974304 663.724487,580.609924 657.262329,587.401855 
	C654.751282,590.041138 652.679688,593.093140 649.683716,595.287109 
	C647.222961,597.089111 645.325806,599.325867 644.144836,602.210632 
	C642.959229,605.106506 641.018250,607.363525 637.730225,607.948181 
	C636.043701,608.248047 635.039612,609.242859 634.539551,610.754150 
	C631.923950,618.658203 625.727478,623.490173 619.477600,628.229187 
	C617.340149,629.849976 615.237427,631.442444 613.589417,633.579834 
	C608.365601,640.354675 602.162537,646.152954 595.403870,651.334351 
	C583.938843,660.123840 572.297546,668.665161 560.386719,676.861206 
	C552.089844,682.570312 542.919250,686.506531 534.222961,691.378479 
	C516.779297,701.151062 496.571869,703.322815 478.826172,712.120667 
	C470.727142,716.135925 462.119812,718.959534 453.511993,721.284180 
	C439.913605,724.956360 426.155884,728.684875 411.949097,728.983276 
	C396.934326,729.298767 382.215820,732.964172 367.163330,732.477966 
	C362.011597,732.311584 356.795013,732.629639 351.718384,731.928040 
	C331.796967,729.174744 311.968170,725.967834 292.198883,722.100708 
	C278.626831,719.445862 265.270966,716.326843 252.003799,712.599792 
	C250.885773,712.285706 249.541489,712.116455 248.754257,711.390076 
	C242.568512,705.683105 234.393875,704.798767 226.941727,702.147095 
	C212.548996,697.025818 200.322922,687.810181 186.920517,680.812256 
	C178.356781,676.340698 169.953094,671.559387 162.560989,665.286133 
	C155.605057,659.383057 148.484512,653.681213 143.171387,646.008362 
	C139.654938,640.930054 133.423325,638.780823 128.768555,634.733826 
	C124.773201,631.260193 120.659622,627.920715 117.308754,623.854431 
	C108.622604,613.313782 98.448837,604.185852 89.578606,593.770630 
	C78.569405,580.843872 68.905388,567.227295 62.300602,551.663208 
	C57.917576,541.334717 51.285358,532.297607 46.657410,522.177490 
	C40.411190,508.518646 37.390076,493.765411 32.591347,479.619141 
	C29.358753,470.089722 29.272358,459.684265 23.916201,450.722321 
	C22.312437,448.038910 22.121727,444.329193 21.885279,441.046356 
	C21.303686,432.971527 18.502872,424.926300 21.417242,416.742920 
	C21.742395,415.829895 21.041208,414.507111 20.701895,413.409607 
	C19.409952,409.230743 18.359131,404.990448 19.542896,400.645813 
	C20.818012,395.965942 18.578539,391.509613 18.851076,387.012604 
	C19.817966,371.058350 18.433092,355.122559 18.869329,339.189117 
	C19.032442,333.231506 20.115524,327.301636 20.696167,321.351044 
	C20.842951,319.846771 22.160984,319.214294 22.908352,317.788208 
	C20.176157,315.849731 19.460655,313.506805 22.130301,310.866058 
	C22.750978,310.252075 22.937922,309.509338 22.845236,308.598511 
	C21.784027,298.169800 24.095078,288.423309 26.555616,278.202057 
	C31.720953,256.744843 41.466133,237.406631 51.189968,218.109299 
	C58.249199,204.099960 64.917168,189.693375 74.764030,177.128220 
	C79.654488,170.887695 83.092720,163.528549 87.706276,157.044266 
	C90.419731,153.230530 93.916145,149.816589 97.113876,146.483780 
	C103.797729,139.517609 109.524017,131.739868 116.504875,125.004601 
	C127.101448,114.780807 138.723907,105.973701 150.459137,97.195930 
	C158.961548,90.836243 166.625412,83.315605 175.340515,77.292747 
	C182.291245,72.489235 189.366043,67.773705 196.774841,63.527111 
	C206.165222,58.144718 216.155914,53.930809 225.309982,48.162327 
	C228.760178,45.988174 232.771072,45.380203 236.561646,44.157921 
	C239.378845,43.249504 242.523529,42.907169 243.926208,39.649860 
	C244.293594,38.796703 245.134598,38.419914 246.004532,38.677433 
	C252.237640,40.522583 257.215149,37.273884 262.302979,34.630817 
	C263.902313,33.799976 265.528717,33.996922 267.158752,33.800449 
	C272.081390,33.207100 276.693909,31.257843 281.333710,30.090111 
	C287.547180,28.526327 293.290253,24.983175 299.908356,25.005108 
	C302.074524,25.012287 304.263153,25.147593 306.402832,24.895573 
	C311.946106,24.242655 317.568756,23.833183 322.976501,22.552597 
	C333.287140,20.110966 343.675018,19.539894 354.209473,19.649446 
	C374.706848,19.862610 395.215088,19.484640 415.702698,19.996723 
	C425.969452,20.253338 436.184082,22.164953 446.453308,22.887739 
	C454.809937,23.475912 462.968536,24.849922 470.836395,27.612572 
	C487.296387,33.392181 504.644348,36.832371 519.888489,45.831120 
	C525.750916,49.291721 531.219604,53.439224 537.173950,56.717358 
	C541.250977,58.961899 545.706726,60.502094 549.902649,62.661671 
	C563.040771,69.423569 573.967590,79.313354 586.105652,87.471077 
	C591.202332,90.896469 595.869385,94.961243 601.018066,98.945297 
M33.712257,439.171906 
	C34.323257,444.426331 34.596539,449.721130 37.358002,454.515656 
	C38.589840,456.654449 38.936832,459.197937 39.459377,461.658325 
	C40.694939,467.475891 41.699417,473.465637 43.965294,478.898651 
	C45.518604,482.623077 46.804497,486.219604 47.388920,490.181091 
	C47.924820,493.813751 49.120979,497.244598 51.107800,500.424377 
	C53.308590,503.946625 55.463409,507.532654 57.238071,511.280426 
	C67.721260,533.419067 79.556129,554.790161 92.957535,575.301147 
	C102.477989,589.872253 114.561569,602.316895 125.912521,615.369995 
	C128.056137,617.835083 129.408249,621.192871 132.888275,622.258728 
	C135.642090,623.102295 137.349777,625.083435 138.857574,627.312012 
	C143.871368,634.722351 151.563522,639.456787 157.772705,645.665222 
	C161.304840,649.196899 165.114609,652.988831 169.552032,656.004639 
	C179.657333,662.872375 190.536835,668.194153 201.168091,674.045959 
	C214.005661,681.112244 227.135864,687.620300 240.463165,693.625916 
	C263.158112,703.852966 286.944092,710.663452 311.712738,713.741150 
	C338.016846,717.009644 364.343292,718.848938 390.905304,716.990906 
	C411.884979,715.523376 432.448517,711.429199 453.110687,708.093201 
	C471.396667,705.140869 488.024719,696.614563 505.104553,689.740784 
	C513.290833,686.446167 521.573242,683.437744 529.303101,679.091370 
	C534.093872,676.397583 538.297791,672.832520 543.313965,670.440613 
	C553.366943,665.647034 563.210083,660.583435 572.088135,653.569946 
	C580.062622,647.270325 587.724976,640.608215 595.689270,634.310425 
	C613.662842,620.097778 629.727722,603.777893 644.438965,586.411804 
	C657.956970,570.454224 669.222046,552.616211 680.318787,534.810181 
	C681.547791,532.838135 682.846863,530.809570 683.549011,528.625732 
	C687.836060,515.292114 694.974976,503.102844 699.030457,489.680206 
	C702.759644,477.337494 709.705383,466.021759 710.343750,452.673553 
	C710.797180,443.192719 713.392029,434.060059 715.403931,424.802490 
	C718.346130,411.264343 713.378418,396.985046 718.341858,383.449799 
	C718.442261,383.176086 718.314392,382.793701 718.227722,382.480042 
	C716.150574,374.964417 716.461304,367.086578 716.160278,359.517853 
	C715.621338,345.968445 712.693420,332.849121 711.093750,319.520630 
	C708.738220,299.894592 701.731506,281.207947 698.181152,261.776276 
	C697.016541,255.402069 692.625488,249.827621 692.072815,243.347534 
	C691.006226,230.842346 685.226501,220.067368 680.071533,209.170425 
	C672.548523,193.267670 660.587769,180.161514 650.320251,166.082611 
	C635.937805,146.361237 620.767456,127.191711 601.351501,111.680717 
	C580.613342,95.113419 561.130798,77.075378 536.710938,65.543388 
	C526.817749,60.871429 517.290588,55.393005 507.211334,50.969639 
	C489.269409,43.095680 471.889771,33.761936 452.051056,31.265347 
	C449.922913,30.997538 449.195343,29.476770 448.413940,27.644079 
	C445.547302,29.906338 442.738617,30.362255 439.338043,29.573524 
	C414.167572,23.735497 388.700256,22.372227 363.022949,25.137884 
	C352.434998,26.278292 341.853973,27.355890 331.183167,27.134911 
	C330.395966,27.118607 329.574127,27.373549 328.814606,27.636147 
	C320.932465,30.361431 312.695648,31.614025 304.632385,33.579823 
	C287.817780,37.679165 270.010345,38.634354 254.980453,48.644917 
	C254.708435,48.826099 254.372269,48.912880 254.062881,49.035797 
	C245.408630,52.474262 237.064896,56.633335 228.597778,60.473171 
	C213.460861,67.337746 199.118835,75.767036 184.972672,84.547493 
	C169.479950,94.163765 155.104187,105.279259 141.908981,117.675491 
	C129.944870,128.915146 118.593300,140.848419 107.467491,153.034454 
	C89.480904,172.735062 76.911079,195.706467 63.461376,218.201752 
	C57.522503,228.134811 53.238918,239.063065 48.287457,249.578873 
	C45.349209,255.819031 43.477684,262.465088 40.400826,268.717621 
	C36.452023,276.742126 37.549469,286.430328 33.286091,294.565125 
	C32.948944,295.208405 33.030277,296.199554 33.207420,296.961578 
	C33.968761,300.236572 32.936913,303.141663 31.820663,306.163391 
	C30.488207,309.770355 28.501043,313.622833 28.751619,317.233337 
	C29.429300,326.997925 29.185333,336.671631 28.661320,346.420868 
	C27.939863,359.843567 27.543015,373.305298 27.711666,386.741486 
	C27.764778,390.972961 27.354511,395.431458 28.478106,399.571472 
	C30.013678,405.229492 31.459684,411.011566 31.059074,416.741638 
	C30.537495,424.201965 30.076778,431.429169 33.712257,439.171906 
z"/>
<path fill="#000000" opacity="1.000000" stroke="none" 
	d="
M432.979156,115.007744 
	C433.032867,113.148689 431.088226,111.842522 431.614502,109.328850 
	C444.075043,107.175171 455.645508,108.841728 465.116913,118.074951 
	C468.187866,121.068726 471.040100,121.986870 475.412109,122.126259 
	C500.691376,122.932198 520.649353,133.146912 532.567383,156.449280 
	C540.809937,155.843887 547.710388,159.560440 554.141846,163.879654 
	C563.680725,170.285690 570.632141,178.872879 573.301147,190.354736 
	C573.835938,192.655304 575.276245,193.505463 577.240173,194.329056 
	C594.900391,201.735077 607.030762,214.747025 612.129883,232.946533 
	C614.170776,240.231003 617.254028,245.869507 621.690308,251.696335 
	C632.190491,265.487854 638.694397,280.983948 638.320801,298.785431 
	C638.161133,306.396301 636.348389,313.558929 633.192078,320.446594 
	C630.476624,326.372345 630.497009,332.092102 633.503052,338.148407 
	C638.892334,349.006683 644.919556,359.665894 647.287231,371.767761 
	C650.512939,388.254730 648.085144,404.242493 642.640808,419.889130 
	C641.223389,423.962677 641.028381,428.020721 641.617188,432.194183 
	C643.043030,442.301300 640.065063,450.587280 631.551025,456.576416 
	C626.636963,460.033234 621.601074,463.362000 619.824890,470.232422 
	C616.372681,467.030762 616.203979,463.411621 615.500427,459.917725 
	C612.658142,445.802521 616.618164,434.616150 629.270081,427.023834 
	C633.022461,424.772095 635.368958,421.410767 636.703552,417.325348 
	C639.917847,407.486084 642.602722,397.565979 640.740906,387.046326 
	C640.570496,386.083221 640.517822,385.048492 639.210205,384.443085 
	C635.018066,388.701172 635.385742,394.487518 634.452698,399.729950 
	C632.739502,409.356720 628.029602,416.280701 618.568420,419.703247 
	C611.619995,422.216736 604.662598,421.152435 597.302185,420.523834 
	C602.991638,414.886292 604.055237,407.379456 607.261108,400.930145 
	C610.692932,394.026428 616.791321,390.174866 623.991394,388.527618 
	C631.494385,386.811035 634.731262,383.343597 631.862610,372.975800 
	C627.930664,358.765259 618.437500,348.148560 607.103516,339.320496 
	C589.498962,325.608307 569.521301,316.823364 547.688660,312.227997 
	C539.064697,310.412811 539.073486,310.371124 535.901550,311.517517 
	C537.817261,314.277893 540.948303,314.451782 543.533325,315.513062 
	C550.016113,318.174652 557.145874,318.632690 563.620972,321.415436 
	C569.152954,323.792999 574.516052,326.400787 579.260559,330.161011 
	C584.348267,334.193207 589.629456,337.807037 595.519409,340.738800 
	C608.398926,347.149689 613.820374,362.093475 608.585571,375.734985 
	C607.265930,379.173676 606.740112,383.206451 602.624207,385.988861 
	C599.127136,377.188019 591.138062,372.280396 585.914062,365.055054 
	C582.814453,360.767914 581.544495,355.873444 581.610413,350.486298 
	C581.752869,338.839935 575.408508,331.794189 563.193481,329.804077 
	C562.352295,332.112305 564.173828,333.458252 565.169312,334.986664 
	C578.852722,355.995819 583.279724,378.287445 574.665833,402.432373 
	C573.040039,406.989624 573.063477,411.931549 571.293274,416.488525 
	C569.216370,421.835083 566.142578,426.307129 560.811829,428.634277 
	C553.475159,431.837067 546.012451,434.732117 541.834412,441.898834 
	C539.571228,441.411377 538.737549,440.076752 538.445435,438.612793 
	C535.570984,424.209137 538.069397,406.926056 558.033386,405.159729 
	C565.866699,404.466675 569.650757,401.906952 571.194702,392.931396 
	C572.916199,382.923706 571.266846,373.030579 567.976990,363.444000 
	C567.599915,362.345306 567.121948,361.234406 565.699036,361.052155 
	C564.008728,361.535248 564.269897,363.116394 563.949402,364.311890 
	C562.243958,370.671753 558.922363,375.848083 553.315247,379.493317 
	C549.067627,382.254730 545.638977,385.538239 543.911560,390.691895 
	C542.275269,395.573853 537.854370,398.095886 533.132568,399.646606 
	C525.648254,402.104706 517.385559,402.712952 511.274872,410.471161 
	C509.143066,400.109100 510.291016,391.693085 515.570374,384.125519 
	C520.048279,377.706818 526.728455,375.807953 534.113708,376.983612 
	C540.206055,377.953491 546.103516,380.098358 551.209167,374.330963 
	C556.810791,368.003296 558.518555,360.633484 557.748840,352.542419 
	C556.786926,342.431946 551.701904,334.676666 543.371643,329.071136 
	C528.737427,319.223541 512.502319,314.470001 494.908752,314.250122 
	C493.449860,314.231873 491.854767,314.021088 490.767731,315.520660 
	C490.353729,317.737579 492.216187,318.170197 493.568176,319.025726 
	C505.953766,326.863495 511.605682,339.134521 515.000427,352.604431 
	C516.044495,356.747070 514.943481,361.357239 512.300232,364.989929 
	C507.360016,371.779358 499.864319,376.422913 496.529541,384.845764 
	C487.923828,373.492645 484.833466,353.740723 499.066895,344.911499 
	C503.770721,341.993622 503.881165,338.828400 500.423401,334.049347 
	C493.009613,323.802612 477.442139,319.120667 465.415283,323.587982 
	C442.424377,332.127808 429.727661,349.320984 424.362427,372.621521 
	C422.684509,379.908447 421.130920,387.224030 419.440826,394.508057 
	C418.985260,396.471497 418.365753,398.175110 420.110687,400.022095 
	C421.700470,401.704834 421.108124,404.147339 421.065002,406.285156 
	C420.723846,423.191772 422.632751,439.845459 426.648865,456.259399 
	C431.023102,474.136902 442.127136,486.463684 458.312164,494.633484 
	C471.529755,501.305420 485.796997,504.498291 500.101501,507.713745 
	C510.133453,509.968811 520.299561,512.101440 528.887695,518.332397 
	C530.168762,519.261841 531.362671,519.044861 532.664307,518.707275 
	C539.096863,517.039124 545.525208,517.539490 551.999207,518.548218 
	C568.997498,521.196716 585.550720,520.807434 600.604309,510.929962 
	C604.300354,508.504822 607.399170,505.619446 608.933655,501.293945 
	C609.785583,498.892365 609.828247,496.770905 607.924072,494.916290 
	C606.772705,494.909302 607.052368,495.773315 606.932007,496.353851 
	C605.872070,501.467316 603.759033,503.234467 599.706482,502.379852 
	C595.871155,501.571106 593.166931,497.272705 593.908142,493.163269 
	C594.948120,487.397339 599.440125,483.192841 605.094299,482.693115 
	C611.362061,482.139099 616.916626,485.516022 619.309265,490.747742 
	C623.724121,500.401062 617.599304,512.696289 608.979187,515.840942 
	C598.527649,519.653687 595.939880,527.797363 595.507935,536.998901 
	C594.657410,555.117920 584.976318,566.135742 568.928345,572.668274 
	C566.491821,573.660095 564.025818,574.440796 561.194519,573.716492 
	C557.939270,588.205872 549.834717,598.523926 536.328613,604.467468 
	C523.595215,610.071106 510.308472,611.596558 495.669098,610.748169 
	C492.318146,614.522217 489.273102,619.965515 484.300232,623.745911 
	C476.612183,629.590393 468.502686,634.020020 458.387360,633.200256 
	C456.401093,633.039307 455.192535,634.810791 453.755096,635.888855 
	C441.070984,645.401672 426.974762,650.315308 411.171021,647.116882 
	C406.407623,646.152893 403.097778,647.229431 399.177795,649.138245 
	C383.021210,657.005493 367.232758,655.522095 352.081848,646.343262 
	C349.994873,645.078857 348.478271,645.455017 346.516724,645.955750 
	C330.913635,649.939209 317.510468,644.975281 303.919128,635.448914 
	C306.440521,634.399353 307.930084,633.779358 309.419312,633.158508 
	C287.593445,634.105530 262.156555,621.241333 265.108093,610.640442 
	C262.449280,610.125732 259.873718,610.739746 257.250244,610.938660 
	C239.479355,612.285461 222.756149,609.382080 208.169464,598.278687 
	C201.499451,593.201477 197.812286,586.075623 195.540161,578.368591 
	C194.735840,575.640381 193.774185,574.550903 191.350372,573.804504 
	C185.103500,571.880554 179.261932,569.088989 173.998703,565.146790 
	C165.059235,558.451172 159.900131,549.730164 159.763184,538.395264 
	C159.722412,535.021912 159.047348,531.792419 158.314819,528.547485 
	C157.046997,522.931396 153.800430,519.222412 148.349182,517.028076 
	C137.658310,512.724548 132.051758,500.616028 135.937531,490.928955 
	C137.982819,485.830139 143.301132,482.219482 148.856735,482.157990 
	C154.444305,482.096161 159.351379,485.335480 161.411560,490.445831 
	C163.026443,494.451630 161.637955,499.124023 158.061020,501.479553 
	C155.594589,503.103790 153.045731,503.270050 150.649185,501.371002 
	C148.394608,499.584503 148.403076,497.679779 150.465408,492.917542 
	C144.786163,495.021820 143.585464,498.717285 147.235107,503.468384 
	C152.811890,510.728363 161.164047,513.556641 169.242081,516.592529 
	C180.504532,520.825134 192.024216,520.465454 203.660690,517.921936 
	C209.949219,516.547363 216.435303,514.916626 222.484024,519.075439 
	C223.449280,519.739075 224.450455,519.183533 225.300797,518.686951 
	C237.486832,511.571075 251.199554,509.480591 264.680481,506.525787 
	C280.514496,503.055237 296.083832,498.814362 309.124023,488.398285 
	C320.244415,479.515717 326.328064,467.507660 330.769318,454.356476 
	C333.721802,445.613678 334.698120,436.473877 335.937653,427.479797 
	C336.943695,420.180176 336.322388,412.525513 335.473785,405.137329 
	C334.599487,397.525513 334.578217,389.881531 333.909485,382.267975 
	C332.765900,369.248322 328.271423,357.732544 321.694366,346.686005 
	C313.479401,332.888550 300.518524,325.330383 286.119843,320.384644 
	C275.392639,316.700043 265.045715,319.750549 256.115875,326.792328 
	C252.192947,329.885864 250.150909,334.377747 250.474030,339.095001 
	C251.172668,349.294434 246.318863,356.221039 238.733215,361.957977 
	C233.342880,366.034607 227.144638,369.361115 225.143982,376.979004 
	C220.848999,368.476166 218.808929,360.117706 221.136734,351.048553 
	C223.864868,340.419708 230.511246,333.783386 241.028397,330.711487 
	C248.375031,328.565613 252.056824,321.835876 257.058624,316.863953 
	C259.208893,314.726532 256.889313,313.047668 254.629837,312.214020 
	C244.005615,308.294220 233.067978,308.275757 222.105453,310.008331 
	C212.719513,311.491730 204.742126,315.810944 199.167221,323.710327 
	C194.283890,330.629700 194.311035,335.552185 199.140167,342.460388 
	C203.435349,348.604706 204.711411,355.079895 202.591400,362.320190 
	C200.764359,368.559906 198.863358,374.863434 202.266159,380.989777 
	C199.823044,383.159485 198.036224,381.695404 196.370605,380.850952 
	C179.822739,372.461670 175.070969,353.832092 185.592087,338.567596 
	C187.684219,335.532257 189.531097,332.396393 190.871902,328.965546 
	C191.669052,326.925812 192.275635,324.876831 191.025787,322.620331 
	C187.239273,322.012695 185.304214,324.930206 183.283646,327.085693 
	C171.597855,339.551971 167.987656,363.960724 175.546494,379.114319 
	C177.515045,383.060760 180.321411,386.351990 184.901016,387.560852 
	C192.023849,389.441040 196.479630,394.376343 198.390289,401.090302 
	C200.643341,409.007446 203.218491,416.607819 208.820282,422.431854 
	C208.307465,424.227264 207.216415,424.140167 206.247772,424.160828 
	C199.326675,424.308502 192.563370,423.110809 186.218857,420.523834 
	C178.406494,417.338318 173.211380,411.247955 172.512222,402.838440 
	C171.585114,391.687195 169.451736,380.886292 166.845566,370.031555 
	C163.958282,358.005859 165.592697,345.868164 168.726547,333.968445 
	C169.169418,332.286713 170.541901,330.339844 168.639771,328.889679 
	C166.689362,327.402771 164.811707,328.792694 163.130936,329.829834 
	C150.832962,337.418671 140.825012,346.767914 138.584183,362.035400 
	C137.537003,369.170258 139.025528,371.740906 145.548874,374.758148 
	C154.674454,378.979065 157.452484,387.480560 158.909180,396.305603 
	C159.742645,401.354919 159.830719,406.524414 162.047867,411.511414 
	C157.561157,412.989014 154.348282,410.269684 150.903534,409.129181 
	C139.491684,405.350922 128.890457,394.224854 132.769485,377.906586 
	C133.868469,373.283325 133.982941,368.788483 131.915237,363.683685 
	C125.930595,369.046082 122.969444,375.680237 120.557449,382.516632 
	C115.905350,395.702179 116.139214,408.928894 120.991302,422.066803 
	C122.567146,426.333710 125.536278,428.697479 129.972641,429.836365 
	C150.529739,435.113678 155.391785,456.657990 144.969620,471.341309 
	C143.929764,472.806274 142.975342,474.445831 139.967484,474.940704 
	C139.885056,465.665253 132.427979,461.816406 126.400978,456.760406 
	C122.378288,453.385803 119.707748,448.730957 119.963791,443.705902 
	C120.359612,435.937439 117.279800,429.518860 114.373543,422.794281 
	C108.449554,409.087189 107.755562,394.917297 110.402138,380.252686 
	C113.942993,360.632904 125.536873,345.818115 138.077850,331.427887 
	C138.734589,330.674316 139.412384,329.938965 140.064468,329.181458 
	C147.091797,321.017670 145.176361,311.677582 135.517990,306.483154 
	C133.644287,305.475525 132.393112,305.809113 131.243347,307.383362 
	C129.019577,310.428162 127.359741,313.714294 128.185211,317.600769 
	C130.297318,327.544861 127.222931,335.569000 119.643822,342.157379 
	C115.538628,345.726013 114.415649,350.456177 115.989639,356.741425 
	C108.155296,352.841125 105.385155,346.685181 103.887245,340.061981 
	C101.149101,327.954895 105.215042,318.683777 115.584061,311.730011 
	C117.104317,310.710480 118.646980,309.703613 120.054070,308.539520 
	C129.232437,300.946289 129.366150,300.412537 125.459343,289.211029 
	C121.351036,277.431793 126.760651,260.309357 137.184326,252.635635 
	C138.750000,251.483017 138.787460,250.169876 138.579590,248.734528 
	C136.728592,235.953171 141.521698,225.769608 150.372147,216.861237 
	C157.775620,209.409271 164.183228,201.175385 169.558182,192.030807 
	C178.228668,177.279449 191.794296,169.445465 208.471863,166.927429 
	C211.641815,166.448822 213.355164,165.420212 214.763412,162.421799 
	C221.374405,148.345840 231.322372,137.517059 246.258286,132.029739 
	C255.442230,128.655640 264.878510,126.944664 274.616730,129.219742 
	C278.540558,130.136444 281.313538,129.337494 284.309082,126.290962 
	C307.228088,102.981857 334.772125,95.242073 366.573517,102.677429 
	C371.797089,103.898727 376.416656,106.696655 381.875580,109.126366 
	C394.754761,119.561211 407.585510,120.235573 417.815216,111.329575 
	C416.838379,109.708565 415.133331,109.636986 413.541901,109.204964 
	C403.028564,106.350960 392.508575,107.093346 381.975494,109.022369 
	C380.267975,106.343010 376.409241,105.946472 375.200500,102.734474 
	C386.221405,91.787186 419.102234,98.626183 432.848938,115.124588 
	C434.676300,118.841576 435.911041,122.144936 437.626953,125.175873 
	C441.573547,132.147018 440.876312,138.809006 437.038635,145.532547 
	C434.897797,149.283264 432.400146,152.934372 431.446106,157.208496 
	C430.747223,160.339447 428.970856,159.676178 426.874084,158.695358 
	C425.839905,156.793518 424.929260,155.214218 423.976044,153.661041 
	C417.691132,143.420334 418.240417,134.209518 425.685547,124.827560 
	C426.808685,123.412277 428.145752,122.055946 427.686554,119.970001 
	C411.655975,122.475616 405.058258,129.548935 406.746399,142.498245 
	C411.510345,143.326523 414.786133,146.620865 418.373810,149.526260 
	C421.758240,152.267059 423.014465,156.877029 427.038544,159.368591 
	C427.229858,163.545273 429.585602,166.576859 430.638977,170.074722 
	C432.363312,175.800400 434.194946,181.508804 436.330414,187.090942 
	C438.085205,191.677902 439.892120,192.175217 443.830688,189.389420 
	C446.946045,187.185928 449.995972,184.818649 452.744812,182.180145 
	C467.469818,168.046402 471.095001,155.827072 463.389984,135.369919 
	C462.651184,133.408432 461.914398,131.287979 459.878632,130.146484 
	C452.050751,135.915573 451.954681,136.401520 456.975311,144.468063 
	C457.326843,145.032867 457.682617,145.597351 457.994446,146.184280 
	C463.140442,155.870941 456.287048,172.375153 445.198090,176.045151 
	C445.079559,171.592712 443.382599,167.698792 441.344452,163.922592 
	C436.481415,154.912643 437.194550,146.533966 443.783630,138.514481 
	C447.585663,133.887100 451.771576,129.679703 456.460297,125.496590 
	C452.346405,119.953926 446.693085,117.589783 440.417267,117.722237 
	C437.203064,117.790070 435.102692,116.894516 432.979156,115.007744 
M211.904053,202.325592 
	C205.363235,209.709473 194.472153,209.306396 187.656967,217.203659 
	C185.965134,201.995667 191.539948,191.600876 203.625870,186.002853 
	C207.076797,184.404419 209.853577,182.391953 209.630066,177.606384 
	C203.143539,177.324203 197.575211,179.576111 192.388000,182.415039 
	C175.298447,191.768005 166.806366,212.107422 171.668274,231.303268 
	C171.990509,232.575500 172.228882,233.852188 173.732376,234.476532 
	C178.972443,236.652451 190.393814,232.101898 192.715561,226.816910 
	C194.658951,222.393173 196.291061,217.714432 200.200974,214.578247 
	C207.234283,208.936722 216.461182,207.321426 223.441467,201.085464 
	C225.099411,205.359619 223.729843,208.606125 223.176254,211.794907 
	C220.771698,225.645630 212.471100,234.920166 201.082581,236.210846 
	C193.077011,237.118118 185.465439,239.478882 177.742966,241.495071 
	C174.719635,242.284424 173.601547,244.086197 173.268768,247.174988 
	C172.506989,254.246140 172.578674,261.509796 169.246826,268.116699 
	C168.663086,269.274231 168.262817,270.691742 169.596878,271.775482 
	C170.663193,272.641754 171.823715,272.346710 172.896851,271.837799 
	C176.553009,270.103943 180.581467,269.732422 184.113266,271.116241 
	C191.238876,273.908142 196.930222,279.647156 205.038864,280.797272 
	C203.111740,284.672760 200.106171,286.031311 197.363419,287.414429 
	C187.945221,292.163605 177.024338,294.249908 169.252808,282.390411 
	C168.368057,281.040253 166.913498,280.047272 165.662750,278.958008 
	C164.560455,277.998108 163.337540,277.561035 162.141525,278.832733 
	C156.125504,285.229218 149.593765,291.076141 142.569504,296.241058 
	C149.246384,305.865112 160.432877,308.655029 169.509949,303.245911 
	C180.635223,296.616180 192.652725,292.247314 205.064835,288.860931 
	C210.038086,287.504028 215.110962,286.515900 220.111343,285.252441 
	C221.513718,284.898132 223.236343,284.565918 223.503220,282.744720 
	C223.780365,280.853394 222.181885,280.192505 220.840332,279.580231 
	C218.421158,278.476196 216.024857,276.975250 213.471100,276.568390 
	C195.123718,273.645233 195.121399,251.297607 202.142578,239.322937 
	C206.103897,247.090164 213.639938,251.198837 217.466248,258.569946 
	C218.719452,260.984131 219.545044,263.516785 219.300293,266.245880 
	C218.891266,270.806488 221.035995,273.625488 224.796951,275.998779 
	C233.500381,281.490967 243.262070,282.274170 253.079559,282.980103 
	C254.704437,283.096954 256.585388,283.319824 257.661804,281.694641 
	C258.968353,279.721985 257.371185,278.231598 256.419189,276.747040 
	C250.336868,267.262360 246.404846,257.173248 247.738251,245.644821 
	C248.664047,237.640472 251.240753,230.107178 254.529510,222.787613 
	C255.666016,220.258179 257.279907,217.854431 257.156677,214.904678 
	C250.360962,213.470154 241.832199,220.335358 242.079712,226.920410 
	C242.241135,231.214722 243.499054,235.453064 242.255661,239.814117 
	C239.771439,248.527328 232.546341,255.275345 233.232788,265.654114 
	C220.582291,256.612640 215.036789,236.859985 228.038025,225.922592 
	C235.030548,220.040100 241.962708,213.974167 249.903900,209.320786 
	C252.618362,207.730179 255.460541,206.151764 258.452148,205.284607 
	C263.927521,203.697464 266.306519,200.787842 265.764709,195.265701 
	C265.340240,190.939178 262.699677,189.375198 258.949921,191.611603 
	C255.021408,193.954666 250.803436,194.205078 246.919479,192.727203 
	C241.172516,190.540451 235.690445,188.545792 230.232727,192.172272 
	C228.700226,190.698532 229.064957,189.557434 229.416977,188.441208 
	C232.187363,179.656815 244.781296,172.305435 253.942993,174.115204 
	C266.069550,176.510651 271.841431,184.243851 271.365265,198.141373 
	C271.227295,202.168747 272.193359,203.745712 276.479675,203.904816 
	C286.119629,204.262634 295.107819,207.281479 303.490845,212.026230 
	C306.821716,213.911499 309.981354,216.107834 313.357086,217.902740 
	C316.389771,219.515244 318.463593,218.936081 318.663208,214.937225 
	C318.860382,210.987289 318.554962,206.992874 315.978607,204.013931 
	C308.562836,195.439240 300.477142,187.539001 289.310577,183.969162 
	C285.000549,182.591278 281.288544,180.696182 279.125488,176.572052 
	C275.623993,169.896133 277.582886,156.677155 283.226349,150.523788 
	C285.470673,153.907715 288.220490,156.745148 291.252289,159.318802 
	C295.408142,162.846664 297.841980,167.215118 297.428864,172.855133 
	C296.826172,181.083282 301.338470,185.886002 308.329926,188.923950 
	C310.384277,189.816635 312.625763,191.639389 314.842468,189.873474 
	C317.040802,188.122208 316.765808,185.415390 316.224884,182.903168 
	C312.739777,166.717575 304.077484,154.308441 289.422150,146.303162 
	C282.153687,142.332870 282.254547,142.450363 276.675934,148.364746 
	C262.559845,163.330582 245.112778,172.027832 224.884109,175.157425 
	C217.403854,176.314697 216.916321,176.558868 217.040085,184.217285 
	C217.141861,190.515884 216.150497,196.494339 211.904053,202.325592 
M478.722595,202.251221 
	C458.843353,208.762466 443.187592,220.177597 434.725189,240.010086 
	C425.957916,260.557068 422.569550,282.465698 418.482117,304.190918 
	C418.104950,306.195496 417.710724,308.755463 420.066956,310.063568 
	C422.195831,311.245453 423.896027,309.555115 425.509338,308.520935 
	C437.341461,300.936218 449.799133,294.694489 463.257385,290.520996 
	C473.421570,287.369049 483.431610,283.754425 493.192261,279.531769 
	C502.948486,275.311096 511.940826,269.977020 516.993347,259.961487 
	C519.152039,255.682251 518.654297,254.735580 513.973633,254.303436 
	C503.266876,253.314941 493.436737,250.104156 485.274384,242.830246 
	C482.473053,240.333786 480.262177,240.540390 477.560608,243.136261 
	C471.957184,248.520447 470.368225,255.090332 470.259460,262.596893 
	C470.043396,277.513092 452.424377,289.834839 439.452393,284.037292 
	C442.051819,280.603729 442.473450,276.559235 443.176422,272.474091 
	C444.442902,265.114319 447.632172,258.291962 455.339966,256.108948 
	C465.936157,253.107895 467.726746,243.321365 473.584473,235.873703 
	C469.461884,234.740417 468.062347,237.199066 466.947723,239.168488 
	C464.662689,243.205917 461.249817,245.630890 457.074188,247.129608 
	C450.861237,249.359573 444.096893,249.744553 438.216736,253.572281 
	C436.927948,244.267197 442.350616,233.891205 450.056488,229.284180 
	C459.738190,223.495895 469.177399,225.012894 478.546967,229.896255 
	C480.841064,231.091934 482.695801,231.835800 485.463989,230.491348 
	C500.671448,223.105438 520.743835,228.254822 528.592529,242.170425 
	C529.326416,243.471634 530.101562,244.859009 532.053162,244.290268 
	C542.993286,241.101990 551.990540,235.140900 558.163818,225.443954 
	C559.671509,223.075638 558.942444,220.182449 555.601929,220.829712 
	C547.752502,222.350632 540.077209,221.934082 532.338440,220.442062 
	C530.672180,220.120819 529.050415,220.723465 527.486755,221.356705 
	C521.046326,223.964828 515.149780,222.881546 509.571503,218.886780 
	C504.488983,215.247070 498.872955,212.823837 492.583466,212.162292 
	C491.735535,212.073105 490.941620,211.850571 490.595734,210.401138 
	C495.141541,205.769485 501.155823,203.334732 507.401337,201.862488 
	C518.971191,199.135132 528.347107,201.391663 533.292786,211.966110 
	C534.312866,214.147247 536.431396,215.411606 538.685120,216.190674 
	C546.594543,218.924789 561.298523,211.446991 563.998230,203.449280 
	C564.705139,201.355103 564.669861,199.962982 562.156677,199.323639 
	C548.683777,195.896210 534.901428,194.434692 521.110779,194.664383 
	C506.953430,194.900208 493.010986,197.595825 478.722595,202.251221 
M402.093231,256.550751 
	C405.201019,243.230865 403.366028,230.672394 395.668091,219.309433 
	C383.142334,200.820053 393.020172,185.291687 407.342072,174.886169 
	C407.988770,174.416290 408.881195,174.256332 410.147491,175.265915 
	C409.682220,179.742386 411.313751,184.323105 412.312073,189.012375 
	C414.123016,197.518967 412.245697,205.007782 407.208557,212.080597 
	C402.723511,218.378143 404.114258,224.918671 410.432190,230.460449 
	C424.919983,217.719116 422.173431,171.987473 405.470123,155.730347 
	C401.545685,176.052902 386.816010,186.864914 369.808777,196.544189 
	C376.578949,202.982407 386.156555,206.500427 387.753479,216.388275 
	C389.178436,225.211502 389.032166,233.999969 382.601593,242.484039 
	C381.124878,238.388916 379.574890,235.341797 376.754333,233.471130 
	C368.479584,227.983093 364.861084,220.482574 365.479828,210.526657 
	C365.672577,207.425247 365.765228,203.641556 362.318085,201.024826 
	C359.071289,207.064316 357.136719,213.141663 357.656464,219.517822 
	C358.392883,228.551758 360.867920,237.576721 369.909088,241.454971 
	C383.262878,247.183167 387.188934,260.354340 382.758087,273.504150 
	C381.847473,276.206665 381.360809,279.309082 377.645691,281.044678 
	C376.168640,275.596985 373.584015,271.274933 369.140106,268.253601 
	C363.232849,264.237335 360.616608,258.131439 360.916779,251.460068 
	C361.195465,245.266541 359.013275,240.649384 355.629059,235.882812 
	C347.531433,224.477478 347.357361,208.674362 354.689362,197.271194 
	C355.888275,195.406616 357.108337,193.950867 359.766327,194.616867 
	C356.233154,182.146622 356.812286,170.597916 362.994629,159.692947 
	C369.314911,148.544617 379.079254,142.365723 391.605042,140.986252 
	C392.097290,131.285828 376.409302,116.084137 366.686340,114.652412 
	C366.959290,116.504219 369.565460,116.311401 369.825500,118.696800 
	C365.045593,124.373734 359.517670,129.917374 355.466492,136.627655 
	C340.827698,160.875107 339.276520,187.232437 342.912567,214.406021 
	C345.411926,233.084564 352.265778,250.433151 359.594635,267.601349 
	C362.676453,274.820587 366.273926,281.801147 372.472351,286.973236 
	C377.346558,291.040344 380.457458,290.996582 385.287598,286.956757 
	C394.575043,279.188904 398.544098,268.446991 402.093231,256.550751 
M260.218231,257.229034 
	C264.381683,272.801910 277.725677,285.333862 296.799255,288.201172 
	C291.830109,280.812744 290.515686,272.031006 282.637970,268.250275 
	C273.361298,263.798096 268.373871,257.083923 268.134827,246.894531 
	C267.947205,238.897675 269.179260,231.210709 274.245483,222.741135 
	C275.987335,229.741150 278.918762,234.482101 282.723083,238.630112 
	C288.636597,245.077866 291.390320,252.639374 291.402069,261.341919 
	C291.404968,263.483154 291.720490,265.710175 292.368805,267.746033 
	C293.651215,271.773041 294.919037,275.938782 299.331055,278.185211 
	C301.684784,274.806000 300.478333,271.818970 299.193420,268.959747 
	C297.404785,264.979614 296.793610,260.721436 298.181732,256.779938 
	C300.847534,249.210510 305.479401,242.239441 303.500427,233.260956 
	C308.043762,235.183411 308.364319,235.522751 312.575165,241.820938 
	C319.194366,251.721298 321.175751,265.887573 309.412109,274.323425 
	C304.550446,277.809784 304.291443,282.395050 307.075012,287.696716 
	C308.637817,290.673279 310.625305,293.421814 313.413391,295.312225 
	C319.333771,299.326385 325.357513,303.192749 331.420197,306.989838 
	C333.498688,308.291534 335.996368,310.075897 338.325897,308.280304 
	C340.785980,306.384064 339.723236,303.438232 339.051605,300.879761 
	C337.323120,294.295654 335.843079,287.626984 333.725159,281.168732 
	C330.071289,270.026611 328.138458,258.454803 322.649384,247.736710 
	C313.326263,229.532120 299.390045,217.781967 279.892365,212.208298 
	C270.653259,209.567169 270.221466,209.664673 266.377594,218.402298 
	C266.243683,218.706741 266.059143,218.989273 265.930267,219.295502 
	C260.922699,231.192123 256.320679,243.154800 260.218231,257.229034 
M566.307556,270.107330 
	C568.229736,264.884521 570.236694,259.385162 575.739136,257.158112 
	C581.860962,254.680359 588.209473,252.820526 593.365173,247.704086 
	C595.354248,252.631256 594.869202,256.856873 594.046875,260.802032 
	C591.682861,272.144196 587.218445,281.818237 573.768372,283.535461 
	C570.685913,283.929016 567.733948,285.346832 564.722961,286.296600 
	C562.745056,286.920532 561.095642,287.894928 560.586731,290.091949 
	C561.529175,292.341827 563.685913,292.553864 565.501892,293.199585 
	C577.928894,297.618408 590.116638,302.485931 600.782837,310.518219 
	C603.872314,312.844788 607.550476,314.095215 611.263916,315.089691 
	C617.982056,316.888916 622.716736,314.511566 625.011475,307.942200 
	C631.222961,290.159882 626.820923,273.910828 617.552734,258.438263 
	C617.067810,257.628754 616.313782,256.768188 614.521362,257.843048 
	C615.577148,266.198059 620.175964,274.751312 615.541504,283.617096 
	C611.183716,291.953552 604.968750,297.662476 595.082458,299.968872 
	C595.670776,294.696747 597.142639,290.243988 596.182800,285.531586 
	C594.423218,276.892670 596.507751,269.361816 603.385315,263.431854 
	C607.022949,260.295410 608.530396,256.155304 608.584839,251.437271 
	C608.604187,249.756012 608.377014,248.373764 606.686523,247.189560 
	C596.981445,240.391235 586.608887,237.893158 575.025940,241.415573 
	C567.338013,243.753510 564.733032,246.766891 564.016296,254.737869 
	C562.657959,269.846130 549.497131,279.267944 534.649292,275.709930 
	C533.455750,275.423889 531.864868,275.527435 531.325012,273.050690 
	C539.556152,267.750793 538.041504,255.986420 546.138550,249.772339 
	C542.769958,250.183517 539.865234,251.501877 536.850464,251.840714 
	C532.890198,252.285812 531.038757,254.110626 530.363647,257.946838 
	C529.079956,265.241791 525.064392,271.143127 520.248840,276.582123 
	C519.206543,277.759369 517.491455,278.622803 517.917358,280.901703 
	C518.381836,281.138092 518.955078,281.687317 519.520020,281.678955 
	C529.396545,281.532990 539.042236,283.754089 548.807617,284.484131 
	C557.742065,285.152039 564.814392,282.310455 566.307556,270.107330 
M379.264618,615.519836 
	C377.159058,615.478088 376.167725,617.282898 374.786621,618.350647 
	C369.955719,622.085571 364.556183,623.771118 358.488159,623.340149 
	C351.869629,622.870056 347.444977,619.045105 345.682129,612.667358 
	C343.698425,605.490540 345.934631,599.268311 349.641357,593.303833 
	C351.739410,589.927856 350.055206,581.130981 346.669800,579.283630 
	C344.333008,578.008484 341.804504,579.220337 339.505554,580.003784 
	C337.356201,580.736267 337.316315,582.648376 337.596832,584.597656 
	C338.790680,592.894104 338.970062,601.158386 336.363342,609.251770 
	C335.941132,610.562683 336.283508,611.488403 336.920593,612.498657 
	C340.827118,618.693237 344.880157,624.776978 349.458832,630.513184 
	C351.307373,632.829102 353.074219,632.884033 355.478088,631.559143 
	C358.088715,630.120361 360.782898,628.768982 363.570374,627.726257 
	C376.661957,622.829346 389.057068,624.950806 400.945801,631.687378 
	C402.312531,632.461853 403.456696,633.773621 405.366394,632.290955 
	C412.158295,627.017700 415.326447,619.138672 419.786652,612.237366 
	C421.561127,609.491699 418.844696,606.237488 418.434326,603.163147 
	C417.745850,598.005737 417.625946,592.895508 418.268951,587.738831 
	C419.114777,580.955139 418.292114,580.146484 411.593964,578.907654 
	C407.802582,578.206421 407.552887,581.683838 405.598358,583.129395 
	C402.054230,585.750427 402.469238,588.295776 405.195923,591.353699 
	C407.517548,593.957336 409.069458,597.126831 410.378113,600.404785 
	C413.818481,609.022278 410.770630,617.973511 402.838562,622.231628 
	C395.225433,626.318481 384.476593,623.420837 379.264618,615.519836 
M329.463409,123.124969 
	C330.613678,127.167770 329.903442,131.066422 328.425262,134.857559 
	C326.577271,139.597153 323.438629,143.861801 323.849426,149.166367 
	C321.360046,149.717560 320.024597,148.635941 318.677917,147.713333 
	C308.500916,140.741058 307.946503,128.341034 317.262939,120.088249 
	C319.637299,117.984978 323.168243,117.070023 325.087891,112.454933 
	C311.083191,116.224953 300.531281,123.140511 291.379211,132.926163 
	C292.278168,133.916290 292.621552,134.558441 293.155548,134.843399 
	C302.675781,139.923538 310.804016,146.640320 317.796021,154.884262 
	C321.340607,159.063553 324.539764,158.306946 327.232971,152.723083 
	C333.101196,140.556183 341.413177,130.217804 350.781464,120.671257 
	C353.619049,117.779678 356.950043,115.372322 360.055054,112.743179 
	C351.799561,108.609177 344.581421,108.275986 337.461975,110.616890 
	C330.121582,113.030449 329.233185,114.693634 329.463409,123.124969 
M390.675568,513.290649 
	C390.854340,503.778870 387.745300,495.353455 381.939484,487.951202 
	C378.712402,483.836761 376.899017,483.795776 373.887360,488.094604 
	C362.792938,503.930634 363.952087,521.416321 375.350677,536.568481 
	C377.108002,538.904480 378.877808,538.856567 380.503296,536.517639 
	C385.247955,529.690552 389.936310,522.824158 390.675568,513.290649 
M521.183289,555.643799 
	C518.561157,560.632935 515.923035,565.613770 513.322388,570.614136 
	C511.449524,574.215149 512.665649,575.382507 516.555603,575.058411 
	C526.946167,574.192566 536.539612,570.605530 546.158386,566.949097 
	C550.463684,565.312561 551.228699,562.466858 550.576294,558.333496 
	C549.010132,548.411560 543.368408,541.239441 535.587463,535.059265 
	C529.685730,540.961426 525.832764,548.139771 521.183289,555.643799 
M577.838867,234.076782 
	C587.207397,230.687408 596.090637,234.915588 605.143250,236.193771 
	C606.354492,225.513870 586.961060,204.695129 574.604675,203.326660 
	C573.302490,221.011078 565.336670,235.212906 550.758911,246.207687 
	C556.404053,247.990570 559.676331,245.135269 562.897888,242.305450 
	C567.066223,238.643936 571.441711,235.400787 577.838867,234.076782 
M229.626755,571.611572 
	C232.213486,572.215576 234.772430,573.031433 237.393295,573.375183 
	C241.587021,573.925110 242.994019,571.896667 241.167099,568.132751 
	C240.152374,566.042175 239.007324,564.008606 237.822113,562.007996 
	C233.339279,554.441040 228.877563,546.860229 224.265686,539.372131 
	C223.070435,537.431458 221.415466,535.045471 218.760300,537.512695 
	C211.662674,544.107788 206.260254,551.687439 205.289200,561.749207 
	C204.951645,565.246887 206.430679,567.007751 209.773071,567.653870 
	C216.122330,568.881409 222.449844,570.221436 229.626755,571.611572 
M492.000702,156.710938 
	C500.811249,157.097473 509.216370,154.319290 517.890381,154.351608 
	C517.890381,153.069946 517.988708,152.702759 517.876221,152.419205 
	C513.269714,140.807266 489.406830,126.849518 476.962128,128.368408 
	C474.339630,128.688477 473.972168,130.131195 474.563080,132.180267 
	C475.713806,136.170670 476.756561,140.214905 478.256104,144.076828 
	C480.616699,150.156097 483.995850,155.404907 492.000702,156.710938 
M192.214691,561.672180 
	C193.503647,561.341003 194.256561,560.379150 194.391342,559.194519 
	C195.490738,549.531006 200.214844,541.690002 206.467575,534.546143 
	C208.784576,531.898926 207.319244,529.919922 204.540115,529.565063 
	C195.180847,528.369934 185.880219,528.718323 177.266891,533.117737 
	C172.631012,535.485535 170.790771,540.911926 172.936646,545.528687 
	C176.695816,553.616394 182.990921,558.971802 192.214691,561.672180 
M560.487793,555.188904 
	C560.762939,556.488403 561.066895,557.782654 561.307068,559.088623 
	C561.750610,561.500549 563.233398,562.188965 565.294189,561.189819 
	C571.476440,558.192383 577.417542,554.805420 580.905518,548.514465 
	C584.966003,541.190796 582.152832,534.376099 574.054382,532.330688 
	C569.075623,531.073303 563.993164,530.011597 558.893799,529.519348 
	C555.248108,529.167480 551.348572,528.470093 546.680237,530.854675 
	C552.983704,537.980530 558.355164,545.299622 560.487793,555.188904 
M499.494537,168.064697 
	C490.503754,169.890930 483.134857,174.422455 477.287628,181.449783 
	C476.363770,182.560104 474.855957,183.700500 475.672668,185.328186 
	C476.659393,187.294708 478.505524,186.334702 480.122986,186.155167 
	C490.698730,184.981430 501.266113,183.692596 511.865753,182.787308 
	C519.229492,182.158386 524.268921,176.462570 523.615967,168.975327 
	C523.412109,166.637589 522.371460,165.880508 520.082336,165.915405 
	C513.425476,166.016907 506.760773,165.879852 499.494537,168.064697 
M503.874207,545.485168 
	C500.677216,547.050903 496.305145,546.255859 494.180725,549.906555 
	C489.975281,557.133667 483.873047,562.438721 477.228668,567.251404 
	C476.052094,568.103577 474.387817,568.789368 474.725616,570.617554 
	C475.083252,572.553101 476.903473,573.151855 478.484619,573.457458 
	C484.351379,574.591614 490.250061,575.566101 496.148956,576.525513 
	C498.061890,576.836609 499.144806,575.977295 499.764832,574.004578 
	C502.640320,564.855347 508.034882,557.003967 512.921997,548.890503 
	C513.896973,547.271851 515.691895,545.902466 515.004822,543.343323 
	C511.189789,542.025513 508.146362,545.031067 503.874207,545.485168 
M242.263107,547.638794 
	C246.992203,556.010559 251.742462,564.370544 256.432922,572.763916 
	C257.399841,574.494141 258.598999,575.535889 260.694885,575.640198 
	C266.043243,575.906494 271.300568,575.325745 276.460175,574.014038 
	C278.158905,573.582275 280.217682,573.030823 280.480103,570.822510 
	C280.717468,568.825073 278.847992,568.080444 277.579010,567.112000 
	C271.341827,562.351501 265.450195,557.280273 261.810822,550.123779 
	C261.221344,548.964661 260.268005,548.468140 259.114990,548.140259 
	C254.495850,546.827271 249.885620,545.482544 245.261963,544.185791 
	C242.770615,543.487061 241.235443,543.983887 242.263107,547.638794 
M218.466095,592.048523 
	C226.439148,597.642456 235.330200,600.452820 245.033417,600.671326 
	C257.418732,600.950256 257.449738,600.900208 251.769821,589.788208 
	C250.928864,588.142944 250.718094,585.875183 248.050674,585.650330 
	C236.801178,584.702393 225.815720,582.188354 214.799255,579.875244 
	C212.819870,579.459595 210.852753,578.903748 209.562515,581.425110 
	C211.362396,585.594543 214.271698,588.894531 218.466095,592.048523 
M328.539032,590.892822 
	C327.437958,582.632874 327.438568,582.504517 319.159698,582.465332 
	C312.057404,582.431763 305.418030,580.387756 298.751984,578.358704 
	C297.346619,577.930908 296.093750,577.055115 294.470947,577.654419 
	C288.479248,579.867065 284.898926,588.365967 287.453461,594.560730 
	C301.484558,590.690979 314.896210,591.633728 326.898407,600.537476 
	C329.268890,597.423523 328.504608,594.521912 328.539032,590.892822 
M267.416534,138.469574 
	C248.968796,136.699112 236.193542,146.138855 225.533035,159.708740 
	C224.732742,160.727448 223.847870,161.955414 224.806274,163.322556 
	C225.697647,164.594086 227.082947,164.411133 228.436066,164.248169 
	C244.747543,162.283661 257.361908,153.404785 268.940033,142.596893 
	C270.734955,140.921356 270.760651,139.497971 267.416534,138.469574 
M442.285004,582.177368 
	C438.977020,582.430786 435.668610,582.679138 432.361176,582.939697 
	C430.684174,583.071838 428.978577,583.171143 428.366760,585.197510 
	C426.910919,590.019531 426.919922,594.821655 428.203796,600.481018 
	C438.741028,591.385498 450.484161,591.261230 462.621094,592.907410 
	C464.890320,593.215210 467.869537,595.146790 469.358704,592.230713 
	C470.701050,589.602173 469.276794,586.763062 467.845520,584.237793 
	C465.829681,580.681091 462.309265,579.113586 458.928284,577.365051 
	C458.210052,576.993591 457.323608,576.740479 456.583435,577.378479 
	C452.719788,580.708740 447.669617,580.635132 442.285004,582.177368 
M502.901886,594.303528 
	C502.163727,596.637024 501.425537,598.970520 500.691803,601.289917 
	C518.630371,600.167114 535.971191,598.223450 546.856079,581.357788 
	C544.555481,578.591064 542.359558,579.839905 540.425110,580.371521 
	C531.457947,582.835815 522.428894,585.301697 513.139587,585.616028 
	C507.282288,585.814026 504.340729,588.224609 502.901886,594.303528 
M287.330841,562.173035 
	C292.567352,566.598633 297.697693,566.532715 302.788330,561.885803 
	C303.885071,560.884705 305.138824,560.045288 306.369049,559.202759 
	C310.101318,556.646545 311.579773,554.057434 307.485962,550.297363 
	C305.728455,548.683167 304.783295,546.161133 303.550232,544.005127 
	C302.073425,541.422974 300.161835,540.378601 297.426422,542.131897 
	C291.320099,546.045715 284.694885,548.425293 277.469971,549.224304 
	C273.932465,549.615479 273.519501,551.420959 275.990540,553.755249 
	C279.247223,556.831787 282.801971,559.557129 287.330841,562.173035 
M456.677490,524.831421 
	C462.935303,530.103821 469.644836,534.607483 477.553436,537.058289 
	C480.182861,537.873169 483.088165,538.373169 484.982605,536.106140 
	C486.715607,534.032227 485.710205,531.418884 484.659424,529.073181 
	C481.874542,522.856323 476.721710,519.432373 470.604370,517.275574 
	C464.983002,515.293701 459.290222,513.503784 453.582977,511.781494 
	C451.619263,511.188904 449.432648,510.376984 447.452148,512.602234 
	C449.095459,517.446472 452.574432,520.935669 456.677490,524.831421 
M446.828461,558.017090 
	C450.952057,560.482178 455.045013,563.001038 459.218445,565.378662 
	C460.433533,566.070923 461.922729,567.342896 463.307098,566.000061 
	C467.494934,561.937927 473.260498,559.995911 477.146820,555.567993 
	C478.326569,554.223816 480.054840,552.968628 479.443054,550.911682 
	C478.818939,548.813232 476.682922,548.611694 474.928864,548.470032 
	C468.829254,547.977295 463.403778,545.625183 458.090942,542.833130 
	C456.946899,542.231812 455.630920,541.525452 454.420532,541.570862 
	C451.744385,541.671326 445.082672,555.115784 446.828461,558.017090 
M274.046143,524.595398 
	C272.486359,526.132568 271.327820,527.896729 270.598297,529.993530 
	C268.136017,537.070801 269.768097,539.559204 276.903259,537.531860 
	C289.314819,534.005310 298.520111,525.564026 306.036407,515.380371 
	C308.015106,512.699463 306.239502,510.553955 302.702240,511.292084 
	C298.993927,512.065918 295.392273,513.396362 291.788269,514.614563 
	C285.486938,516.744385 279.168274,518.880981 274.046143,524.595398 
M337.943207,517.485413 
	C339.875092,515.201294 341.885925,512.978027 343.710663,510.611328 
	C344.904388,509.063171 346.657837,507.158936 345.261810,505.267334 
	C343.662354,503.100128 341.153290,504.423584 339.331146,505.295654 
	C330.647583,509.451447 323.163361,515.232727 317.768921,523.262512 
	C314.529175,528.085083 313.369049,533.672241 314.604980,539.481873 
	C315.004333,541.358887 315.432800,543.805908 317.736115,544.166199 
	C320.057709,544.529175 321.068298,542.376526 322.034607,540.623596 
	C326.460754,532.594360 331.711243,525.133057 337.943207,517.485413 
M430.637665,536.900635 
	C431.846283,538.887512 432.893921,540.998108 434.302887,542.830994 
	C436.223114,545.329041 438.030243,545.299866 439.429321,542.156921 
	C441.037628,538.543884 441.604858,535.016235 440.309967,531.078125 
	C436.271454,518.795593 427.102112,511.486938 416.233215,505.816010 
	C414.372101,504.844971 412.144836,504.463165 409.636292,506.269562 
	C411.401642,512.422241 417.247040,515.628845 420.419006,520.702148 
	C423.674408,525.908936 427.012726,531.063782 430.637665,536.900635 
M399.301392,531.849426 
	C395.379456,537.765991 390.073303,542.541504 385.055847,547.708374 
	C390.055847,553.123474 394.872406,557.429504 399.971344,561.421997 
	C402.168823,563.142578 404.324463,563.455933 405.463867,560.275574 
	C408.759827,551.075989 409.132202,541.700378 406.270752,532.372314 
	C404.942444,528.042114 403.108215,527.913574 399.301392,531.849426 
M386.543152,171.024673 
	C389.024353,167.238876 390.934570,163.208786 392.182098,158.832382 
	C393.203674,155.248718 392.210938,153.600098 388.385345,154.329224 
	C374.269287,157.019684 361.528198,176.366714 367.279633,189.205963 
	C373.637329,183.663101 381.561432,179.350296 386.543152,171.024673 
M347.930634,552.486633 
	C348.433014,554.415527 348.830627,556.379333 349.458191,558.266602 
	C351.085571,563.160522 352.402008,563.628784 356.485291,560.646545 
	C360.381531,557.800842 363.927063,554.542480 367.393646,551.175415 
	C369.451141,549.177002 369.287201,547.769775 367.433533,545.793640 
	C363.342834,541.432556 359.370087,536.955444 355.477417,532.415771 
	C352.251648,528.653809 350.265381,528.789734 348.548737,533.404663 
	C346.335693,539.354248 347.025635,545.521606 347.930634,552.486633 
M394.972931,578.757874 
	C399.413239,573.825562 399.395660,573.846985 394.335358,569.690430 
	C389.722015,565.901062 385.070679,562.150940 380.597046,558.201233 
	C378.238739,556.119141 376.420288,556.100586 374.309875,558.461609 
	C370.308899,562.937866 365.621307,566.643616 360.684204,570.033325 
	C354.940918,573.976685 354.820221,576.225830 360.378876,581.137756 
	C364.034241,578.149414 367.677612,575.048584 371.803253,572.562500 
	C376.097687,569.974670 380.098969,569.708984 384.331299,572.581848 
	C387.605591,574.804443 391.035767,576.797363 394.972931,578.757874 
M445.599457,603.130798 
	C440.268799,604.072083 436.375305,607.310913 432.753815,610.954163 
	C435.623169,616.611572 445.543976,622.571045 451.164154,622.073975 
	C451.792328,622.018372 452.545868,621.803955 452.981567,621.389893 
	C458.000061,616.620056 462.651276,611.560120 466.104980,604.846130 
	C459.253113,601.869629 453.046906,600.252502 445.599457,603.130798 
M296.137787,611.347107 
	C297.176666,612.646667 298.173706,613.982422 299.261169,615.239990 
	C307.081268,624.283142 311.759064,624.421143 320.530243,615.896057 
	C320.888062,615.548340 321.220398,615.172302 321.595490,614.844910 
	C323.792053,612.927490 323.362640,611.342285 321.249817,609.569153 
	C315.220459,604.509094 308.144989,602.522644 300.480377,602.352966 
	C297.751617,602.292542 294.247894,601.461609 292.747803,604.378723 
	C291.409851,606.980530 294.770935,608.572021 296.137787,611.347107 
M548.379089,185.877884 
	C550.940979,186.584961 553.498718,187.307816 556.066284,187.993607 
	C557.794617,188.455246 559.837341,189.610458 561.191345,187.926605 
	C562.710632,186.037262 561.221313,184.159485 560.062378,182.528870 
	C554.037170,174.052048 545.223022,169.706238 535.994324,165.883301 
	C534.874573,167.768616 535.372009,169.464294 535.370300,171.079315 
	C535.357056,183.452347 535.376282,183.452362 548.379089,185.877884 
M154.619019,273.286072 
	C154.787003,272.197998 154.430145,271.265594 153.521179,270.704468 
	C149.001480,267.914459 145.414734,264.060791 141.853745,260.118622 
	C135.355362,269.340393 133.977859,282.348816 138.899521,289.588287 
	C144.976181,285.234650 150.181091,280.100555 154.619019,273.286072 
M509.320984,532.828308 
	C512.890503,531.056641 516.974121,530.008301 519.519714,525.709412 
	C512.046082,522.440063 504.914459,519.571472 497.059357,519.170166 
	C494.701996,519.049805 492.867157,520.342590 494.161285,522.853882 
	C495.640167,525.723694 496.095215,528.801147 496.971375,531.793884 
	C497.809265,534.655762 499.569092,535.979797 502.540405,535.160217 
	C504.600525,534.591919 506.607330,533.830322 509.320984,532.828308 
M241.406082,530.138428 
	C245.093002,531.975647 248.698456,533.925293 252.727188,535.065369 
	C256.381439,536.099365 258.396820,535.420532 259.018005,531.385071 
	C259.390503,528.965027 260.287659,526.613770 261.067322,524.271057 
	C262.467316,520.064331 261.532806,518.883850 256.986145,519.274414 
	C251.296936,519.763062 246.095032,521.978577 240.897110,524.056946 
	C236.956848,525.632507 237.974472,527.791321 241.406082,530.138428 
M366.549286,590.417358 
	C369.026947,595.344727 373.616180,597.999634 377.585052,601.385986 
	C382.484924,597.840637 385.336517,593.178894 388.808929,589.110779 
	C382.655182,582.261658 377.689209,580.684265 372.880463,584.168213 
	C370.624603,585.802673 368.692993,587.884827 366.549286,590.417358 
M332.155762,548.806396 
	C330.685913,550.594727 329.242279,552.405457 327.736572,554.163025 
	C326.810089,555.244568 326.239258,556.291016 327.043854,557.725220 
	C328.983276,561.182495 330.769958,564.729065 332.802460,568.129456 
	C334.387115,570.780579 336.801636,569.754639 339.007874,569.086182 
	C341.469086,568.340393 341.724487,566.700684 341.073395,564.407349 
	C339.722198,559.648010 338.579865,554.829041 337.367798,550.030518 
	C336.621613,547.076477 335.255646,545.915588 332.155762,548.806396 
M366.216187,642.691528 
	C383.163696,645.204712 390.156891,644.465027 393.134399,639.844360 
	C385.522186,633.504700 371.460510,633.448914 362.190216,640.497009 
	C363.063965,641.567017 364.137177,642.275879 366.216187,642.691528 
M326.814453,624.366699 
	C323.216583,626.744751 319.618683,629.122742 316.187012,631.390930 
	C323.467346,636.843994 331.384644,638.250305 340.864349,636.088318 
	C337.669830,631.481567 334.975372,627.386108 332.050873,623.462097 
	C330.457672,621.324463 328.854004,622.833618 326.814453,624.366699 
M516.286255,240.353775 
	C509.474335,233.809769 498.468506,232.081940 491.982788,236.538300 
	C495.895325,242.416733 508.386169,247.376511 515.262451,245.797348 
	C518.619507,245.026382 517.896484,243.067596 516.286255,240.353775 
M154.327957,239.744110 
	C163.103760,235.764084 163.100876,235.764481 161.782486,226.054398 
	C161.670578,225.230301 161.720779,224.376266 161.539719,223.571213 
	C161.185974,221.998322 160.261658,221.392487 158.600082,221.881134 
	C153.882599,223.268509 146.858719,236.060379 148.034912,241.279495 
	C150.165100,242.184219 151.842346,240.800674 154.327957,239.744110 
M435.489136,634.149231 
	C436.850159,633.333191 438.692230,633.095886 439.295044,630.493347 
	C434.506073,628.178772 429.582550,625.703430 425.675964,621.507080 
	C422.503174,626.970520 419.658722,631.868530 416.453583,637.387756 
	C423.332367,638.102051 429.169983,636.960632 435.489136,634.149231 
M425.133820,551.353760 
	C423.889496,550.136475 423.093597,547.903259 420.864319,548.626892 
	C418.997894,549.232910 419.107025,551.366821 418.852264,552.900452 
	C418.144165,557.162415 417.215240,561.331116 415.646454,565.375000 
	C414.575531,568.135437 416.534454,569.192444 418.669220,570.112000 
	C420.980499,571.107727 422.391846,570.498596 423.346924,568.151550 
	C424.154144,566.168030 424.933197,564.007507 426.319641,562.457581 
	C429.833771,558.529175 430.012177,555.130249 425.133820,551.353760 
M397.298859,612.760071 
	C403.548004,607.820557 402.981964,602.130249 395.346436,595.966797 
	C392.135681,600.094910 388.928741,604.218140 385.638336,608.448669 
	C388.634155,612.198853 392.116394,613.848328 397.298859,612.760071 
M150.597443,255.240280 
	C152.102722,258.250763 154.215256,260.803833 156.546082,263.200684 
	C158.597321,265.310059 160.327606,265.162781 161.514404,262.415070 
	C163.646973,257.477692 164.578384,252.393707 163.215958,246.764725 
	C158.547638,247.383209 154.772461,249.329575 151.127991,251.647293 
	C149.884857,252.437851 149.802170,253.433517 150.597443,255.240280 
M354.490784,608.837830 
	C358.412445,614.680847 364.688660,614.400818 369.302582,608.092407 
	C368.007416,605.304260 365.346466,603.707764 363.233246,601.662292 
	C358.518738,597.099121 355.937958,598.006165 354.467255,604.598389 
	C354.219238,605.710083 354.368866,606.910461 354.490784,608.837830 
M492.759735,591.528381 
	C493.169739,590.108459 493.822784,588.693604 492.115051,587.568604 
	C488.273407,585.037842 482.600433,587.416931 481.487946,591.920471 
	C480.090942,597.575745 483.696442,599.111694 488.325592,600.302490 
	C490.648193,598.188354 491.320801,595.050720 492.759735,591.528381 
M274.270569,610.911865 
	C279.004547,615.452759 283.702484,620.051453 291.726196,621.690002 
	C287.387634,616.021851 283.413147,611.461792 280.491425,606.059570 
	C277.555450,607.443848 274.538727,607.867493 271.893890,609.932861 
	C272.866547,610.283875 273.333191,610.452332 274.270569,610.911865 
M268.331085,586.438782 
	C264.281189,585.950806 263.020752,587.546692 264.828461,591.258301 
	C265.840942,593.337036 266.960144,595.369690 268.137054,597.360657 
	C269.339020,599.394043 271.210571,598.937134 272.989227,598.389526 
	C274.309540,597.983032 275.644928,597.269592 275.227020,595.626404 
	C274.277832,591.893982 274.263031,587.432739 268.331085,586.438782 
M475.071472,617.494202 
	C477.627411,615.246277 480.887573,613.630981 482.093048,609.798767 
	C479.706696,608.568359 477.532196,606.173401 475.342194,609.798706 
	C473.405212,613.005310 471.614990,616.300537 469.609253,619.821167 
	C471.860138,619.821411 473.104645,618.656128 475.071472,617.494202 
M435.734467,567.194153 
	C434.728638,568.675720 433.454895,570.080688 434.380035,572.337463 
	C438.229126,573.167480 441.942902,573.159729 445.802887,570.128479 
	C442.707214,567.707153 440.893188,563.564758 435.734467,567.194153 
M314.181946,570.882263 
	C315.339630,570.938171 316.503784,571.096558 317.653351,571.023987 
	C319.082977,570.933716 320.997955,571.232117 321.340118,569.318237 
	C321.709045,567.254944 320.199097,565.834778 318.510834,565.086548 
	C315.831604,563.899231 314.203552,566.109314 312.557831,567.581604 
	C311.094910,568.890381 311.297821,570.210815 314.181946,570.882263 
M367.334167,483.917969 
	C366.488068,486.252899 364.243744,488.102203 364.652283,491.420746 
	C368.369568,489.751282 370.544434,487.173859 372.415466,484.234161 
	C370.925232,482.305450 369.505310,481.705658 367.334167,483.917969 
M407.546478,427.202118 
	C408.176239,425.809418 409.458344,424.469330 407.895874,422.789520 
	C405.838257,423.422913 405.172577,425.371735 404.944214,426.884735 
	C404.586151,429.256805 405.721252,429.721283 407.546478,427.202118 
z"/>
<path fill="#000000" opacity="1.000000" stroke="none" 
	d="
M87.156494,491.991302 
	C93.595894,508.361084 102.023659,523.044861 112.992020,536.443054 
	C120.763695,545.936401 126.969109,556.698425 134.536209,566.376099 
	C143.500000,577.840027 153.834976,588.117310 163.838791,598.682251 
	C171.361450,606.626831 180.070572,612.763184 187.902679,620.080688 
	C204.328659,635.427246 223.646622,646.674133 243.173492,657.528137 
	C245.344193,658.734680 247.625320,660.082825 250.007660,660.504822 
	C257.235809,661.785156 264.007690,664.473816 270.976685,666.487915 
	C291.915955,672.539612 312.446198,680.367188 334.356506,682.765015 
	C339.161743,683.290833 343.928314,683.946045 348.772552,683.924255 
	C355.261353,683.895020 361.735779,683.812256 368.219269,684.605530 
	C379.991425,686.046021 391.360077,682.876526 402.843811,681.104004 
	C416.795044,678.950623 430.762177,676.896240 444.695160,674.631104 
	C450.910065,673.620728 457.051636,672.307800 462.776398,669.363403 
	C465.072815,668.182251 467.944244,668.181396 470.439819,667.314636 
	C482.242249,663.215393 493.911407,658.566833 505.196930,653.387024 
	C518.082336,647.472961 531.670959,642.444946 543.035828,633.663452 
	C556.825073,623.008606 572.231201,614.515015 584.163696,601.309021 
	C590.583130,594.204468 597.898621,587.696289 605.291504,581.557678 
	C613.396973,574.827332 619.239685,566.251953 625.270081,558.106689 
	C637.331787,541.815002 648.035034,524.447327 656.495178,505.934052 
	C661.329224,495.355652 664.777100,484.152100 669.031799,473.330750 
	C674.714661,458.877258 679.568237,444.330048 682.144836,429.009888 
	C683.499878,420.953247 684.356323,412.834167 684.593567,404.709320 
	C685.279175,381.226562 685.538696,357.698242 681.520630,334.455627 
	C679.595764,323.320923 677.953369,312.107239 676.407166,300.962097 
	C674.719299,288.795380 669.933472,277.944031 665.498474,266.968536 
	C662.228882,258.877075 659.464539,250.622543 656.448181,242.464752 
	C653.316406,233.994781 648.614990,226.301270 645.346802,217.896576 
	C643.263855,212.539902 639.962463,207.501770 636.474487,202.873169 
	C620.240601,181.330627 604.482056,159.305267 584.156982,141.299957 
	C575.329529,133.479950 565.247437,126.854065 556.797607,118.813728 
	C548.430237,110.851807 538.857117,105.261795 529.496887,99.126862 
	C514.244995,89.130363 497.789886,81.523979 480.297333,76.265823 
	C477.260101,75.352859 474.377869,74.176537 471.371735,72.452301 
	C473.108490,70.426239 474.868439,71.684563 476.390778,72.127213 
	C488.843872,75.748207 501.620148,78.551392 513.100830,84.856300 
	C521.700500,89.579041 530.221619,94.509193 538.405029,99.911484 
	C553.535461,109.899773 568.263306,120.443863 581.394714,133.078949 
	C595.087036,146.253769 607.650879,160.446426 620.471741,174.447769 
	C641.534363,197.449646 653.910400,225.228836 666.018250,253.139511 
	C671.951477,266.816650 678.682434,280.488922 681.540955,295.207062 
	C684.477844,310.328369 687.493896,325.544250 688.137390,341.024597 
	C688.465820,348.927032 690.654541,356.503693 690.690002,364.587891 
	C690.738037,375.518646 691.084839,386.435272 690.208740,397.348175 
	C689.264709,409.108459 688.083191,420.820526 685.852295,432.448578 
	C682.677429,448.996613 677.265015,464.811066 671.825012,480.694305 
	C666.038696,497.588837 659.351257,514.083679 650.337158,529.423218 
	C640.742859,545.750122 631.433716,562.366089 619.360840,577.078186 
	C610.403381,587.993774 602.322327,599.925293 591.089783,608.582581 
	C579.357483,617.625183 569.056702,628.447021 556.451111,636.340271 
	C548.837769,641.107605 540.969666,645.466553 533.307861,650.159058 
	C531.538025,651.242981 528.144531,651.286438 529.798645,655.326050 
	C530.439331,656.890686 527.824280,657.961792 526.833740,656.513306 
	C525.021240,653.862610 523.535706,655.412842 521.872742,656.205444 
	C511.658356,661.073975 501.452911,665.961182 491.246368,670.846191 
	C487.419891,672.677612 483.168030,672.738403 479.160217,673.778442 
	C464.190643,677.662781 449.241119,681.631165 434.337799,685.761658 
	C425.586487,688.187256 416.572876,688.274719 407.659027,689.158264 
	C397.561981,690.158997 387.432861,691.232971 377.328461,691.734497 
	C358.261322,692.680725 339.174988,692.853149 320.537842,686.997192 
	C310.049347,683.701660 298.928192,683.297546 288.084625,681.649048 
	C266.003235,678.292358 245.820816,670.069763 227.159409,657.995850 
	C218.667328,652.501465 210.184204,647.017029 201.897446,641.164368 
	C184.519318,628.890686 168.739395,614.732422 153.846085,599.859741 
	C139.065704,585.099854 125.574524,568.899109 113.241547,551.867859 
	C97.232323,529.759827 83.963768,506.151520 74.570740,480.529327 
	C67.371445,460.891174 58.941711,441.549042 56.540203,420.470154 
	C54.563168,403.117035 53.495422,385.751312 56.442055,368.350891 
	C57.271637,363.452087 57.242599,358.409241 57.641907,353.435242 
	C57.758709,351.980255 57.606106,350.318665 59.661541,349.858063 
	C61.945099,350.842834 61.288429,352.930695 61.187172,354.606934 
	C60.262180,369.919495 60.625717,385.227142 60.754036,400.554840 
	C60.916771,419.993835 64.647331,438.838470 70.794937,456.931549 
	C74.859055,468.892700 80.053879,480.801147 87.156494,491.991302 
z"/>
<path fill="#000000" opacity="1.000000" stroke="none" 
	d="
M59.639839,477.528564 
	C63.661476,486.504272 67.190758,495.271851 71.379234,503.802032 
	C80.876366,523.143799 92.171310,541.326965 104.364197,559.036682 
	C113.836617,572.794983 124.752640,585.161438 136.403717,597.160889 
	C148.149200,609.257690 160.370926,620.689026 172.960083,631.862244 
	C196.220627,652.506409 223.377289,665.658325 252.486893,675.615173 
	C269.340729,681.380066 286.015350,687.769409 303.538879,691.120972 
	C339.129333,697.928040 374.903961,698.660156 410.905609,694.134094 
	C432.086670,691.471252 452.967102,687.404419 473.596619,682.230591 
	C493.353760,677.275452 511.895538,668.818420 530.094543,659.716553 
	C533.817261,657.854736 537.526428,655.965271 541.262939,654.131531 
	C542.580688,653.484863 543.942383,652.676453 545.625122,653.904297 
	C546.104736,656.902954 543.565979,657.701538 541.764587,658.883667 
	C518.066162,674.435913 492.752472,685.498474 464.829468,691.996216 
	C433.188568,699.359131 401.332062,702.800720 369.095154,704.173462 
	C362.660706,704.447388 356.140320,703.626099 349.713013,702.860840 
	C344.219025,702.206726 338.881317,701.750183 333.359894,702.997314 
	C327.507233,704.319275 321.908752,701.465454 316.105042,701.005920 
	C300.249634,699.750854 285.034668,695.029419 270.080017,690.211853 
	C257.511047,686.162781 245.797180,679.451050 233.726562,673.870972 
	C231.614212,672.894470 229.728485,671.223511 227.535767,670.658630 
	C214.902954,667.404602 203.809113,660.622559 193.072861,653.899719 
	C181.319107,646.539612 169.821777,638.486145 159.363602,629.113403 
	C139.101532,610.954224 120.804474,591.126709 105.420982,568.624451 
	C102.350395,564.132935 97.418098,561.215515 94.376129,556.483521 
	C85.182755,542.182495 77.078117,527.308594 69.706871,511.999481 
	C64.082634,500.318726 57.625046,489.013275 54.392235,476.311707 
	C53.990524,474.733398 53.219513,473.168396 54.490124,471.364319 
	C57.356693,472.301178 57.899456,475.205292 59.639839,477.528564 
z"/>
<path fill="#000000" opacity="1.000000" stroke="none" 
	d="
M699.652344,356.041748 
	C699.651611,352.116791 699.651611,348.682465 699.651611,343.929108 
	C702.646240,347.225708 702.681213,350.139008 703.152588,352.761414 
	C704.564697,360.616241 705.313721,368.343384 703.533997,376.458832 
	C702.025574,383.337402 702.352539,390.659332 702.235840,397.791107 
	C702.110352,405.461456 701.615845,413.043457 700.349854,420.637451 
	C696.003296,446.710114 691.167175,472.707916 682.285828,497.642944 
	C678.011047,509.644867 673.154541,521.924011 665.987183,532.299316 
	C654.836914,548.440125 645.293091,565.693115 632.796326,580.912109 
	C610.573364,607.976074 585.154053,631.456909 555.522034,650.254639 
	C551.778198,652.629639 551.785034,652.640442 548.313599,652.559387 
	C548.109802,650.248230 549.992310,649.476074 551.432190,648.523987 
	C576.782471,631.762878 598.654907,611.010498 618.496521,588.246704 
	C633.254578,571.315186 645.887817,552.685913 657.893188,533.623901 
	C667.304199,518.681091 674.035522,502.636353 679.848083,486.169434 
	C689.475342,458.895569 693.987793,430.393799 697.226318,401.853363 
	C698.921753,386.912262 700.348083,371.716125 699.652344,356.041748 
z"/>
<path fill="#000000" opacity="1.000000" stroke="none" 
	d="
M126.256805,151.270355 
	C140.962189,133.352036 159.720123,121.075706 178.365509,107.665428 
	C180.111969,111.812660 178.001434,112.787842 176.528564,113.888664 
	C156.350021,128.970001 137.469971,145.395813 121.985626,165.461853 
	C114.244713,175.493256 107.767166,186.353500 100.744186,196.855911 
	C90.191345,212.636978 80.914978,229.229019 71.822029,245.826370 
	C59.466110,268.379608 50.758411,292.407715 49.073868,318.523804 
	C48.528938,326.972046 46.429592,335.234741 44.741241,343.552094 
	C42.967701,352.289185 42.723843,361.370789 42.245163,370.325043 
	C41.909645,376.601318 40.849583,382.876709 42.117607,389.237061 
	C42.623177,391.772949 42.819221,394.973724 38.985931,396.406311 
	C36.595047,392.868286 37.416378,388.883728 37.284367,385.286926 
	C36.771309,371.308014 38.424721,357.388855 39.024765,343.463196 
	C39.817657,325.062042 44.485428,307.691864 48.991196,290.185394 
	C52.810574,275.345856 58.957230,261.328918 65.307968,247.395065 
	C72.988632,230.543304 82.002075,214.437988 91.569435,198.620621 
	C93.892189,194.780518 96.112617,190.792511 98.992615,187.391129 
	C108.686562,175.942169 115.491249,162.333450 126.256805,151.270355 
z"/>
<path fill="#000000" opacity="1.000000" stroke="none" 
	d="
M188.022018,124.022491 
	C187.531845,121.518303 189.399796,120.464111 190.994675,119.301689 
	C207.982559,106.920296 226.126694,96.661018 245.311340,87.967285 
	C263.318054,79.807350 282.461090,75.576347 301.173737,69.848930 
	C313.562012,66.057220 325.867157,61.799377 338.826263,60.230549 
	C365.944427,56.947620 393.071106,53.803711 420.397156,58.026184 
	C424.682251,58.688324 426.807190,59.450321 429.479065,61.637459 
	C427.102478,63.218105 424.972412,61.519356 422.821869,61.405933 
	C394.540924,59.914345 366.119812,57.793854 338.239838,64.233208 
	C307.773041,71.270020 277.391510,79.024353 248.460281,91.144035 
	C231.419617,98.282585 215.761078,108.234909 200.136765,118.088478 
	C196.505264,120.378708 193.302597,123.483269 188.370819,123.978622 
	C188.002991,124.002388 188.022018,124.022491 188.022018,124.022491 
z"/>
<path fill="#000000" opacity="1.000000" stroke="none" 
	d="
M127.249237,174.259567 
	C138.301437,160.724533 150.067154,148.474350 164.409225,138.722473 
	C165.853989,141.088974 164.357758,142.140884 163.485107,143.157776 
	C149.444107,159.519257 136.726196,177.077484 120.207031,191.203766 
	C116.158340,194.665985 114.155930,199.551239 111.633499,203.979340 
	C105.639778,214.501236 100.110779,225.288406 94.428673,235.986801 
	C93.108902,238.471680 91.827682,240.950363 89.223961,242.717773 
	C86.775818,240.574829 87.872543,238.276932 88.874596,236.375671 
	C97.555061,219.905533 105.988121,203.277649 116.938461,188.136063 
	C120.244743,183.564285 122.928963,178.522125 127.249237,174.259567 
z"/>
<path fill="#000000" opacity="1.000000" stroke="none" 
	d="
M204.858643,90.804672 
	C229.230515,75.935455 255.217987,65.893555 282.247894,58.239159 
	C294.409607,54.795174 306.386749,50.640228 318.771210,48.064640 
	C327.878571,46.170593 337.127899,44.958782 346.314911,43.448608 
	C347.309357,43.285145 348.303589,43.186146 349.293610,44.377968 
	C348.454071,47.108791 345.740112,46.794544 343.753296,47.183601 
	C312.511383,53.301430 281.732788,61.092865 252.178619,73.096092 
	C233.996536,80.480629 215.572067,87.424057 199.056320,98.355385 
	C197.306335,99.513649 195.447906,100.815536 192.431137,99.438133 
	C195.742874,95.193703 200.840042,94.007263 204.858643,90.804672 
z"/>
<path fill="#000000" opacity="1.000000" stroke="none" 
	d="
M681.521240,247.669815 
	C684.642822,259.271637 688.743164,270.204620 690.741699,281.694641 
	C691.373718,285.328674 692.031921,289.018860 690.337341,292.967926 
	C680.163330,259.891785 671.511169,226.322372 652.336304,196.356247 
	C656.714905,195.219940 657.538635,197.452728 658.697510,199.142670 
	C667.423401,211.867050 672.768799,226.235489 678.699951,240.317062 
	C679.667175,242.613602 680.492249,244.970032 681.521240,247.669815 
z"/>
<path fill="#000000" opacity="1.000000" stroke="none" 
	d="
M68.567978,304.597961 
	C66.896774,314.582733 65.843292,324.284363 62.201599,334.505768 
	C57.736195,323.103485 72.749550,265.438385 81.215187,259.020996 
	C82.873711,260.786011 82.276001,262.686859 81.452682,264.440582 
	C75.487679,277.146606 72.529732,290.813171 68.567978,304.597961 
z"/>
<path fill="#000000" opacity="1.000000" stroke="none" 
	d="
M450.239136,49.678421 
	C460.554962,51.140774 470.283691,52.879108 479.563629,56.982220 
	C486.226501,59.928192 493.417755,61.663910 500.312408,64.111015 
	C502.172638,64.771255 504.662994,64.911118 505.506439,68.884224 
	C481.534546,61.129295 458.413086,52.848293 433.976410,49.317486 
	C439.485718,46.427505 444.570038,49.626709 450.239136,49.678421 
z"/>
<path fill="#000000" opacity="1.000000" stroke="none" 
	d="
M552.914185,91.037811 
	C558.773499,94.590462 563.983887,98.434822 569.019897,102.518257 
	C569.334412,102.773262 569.390198,103.347252 568.841492,104.830200 
	C550.255432,93.799492 531.669373,82.768784 513.083313,71.738068 
	C513.380554,71.171204 513.677795,70.604332 513.975037,70.037460 
	C527.555420,75.567596 540.428223,82.513565 552.914185,91.037811 
z"/>
<path fill="#000000" opacity="1.000000" stroke="none" 
	d="
M596.588257,124.409729 
	C601.809265,129.579315 608.096436,133.220261 612.168030,139.181564 
	C609.687866,141.246170 608.462341,139.762268 607.319946,138.681686 
	C598.253723,130.105728 589.172729,121.554337 579.161743,114.053635 
	C577.900330,113.108551 576.505066,112.000023 576.517395,110.068359 
	C581.164490,109.603783 582.866699,110.824127 596.588257,124.409729 
z"/>
<path fill="#000000" opacity="1.000000" stroke="none" 
	d="
M187.994293,123.992126 
	C187.933807,125.865074 186.587341,126.801926 185.350815,127.969849 
	C181.322037,131.775070 176.440079,134.371735 172.048767,137.655258 
	C170.847992,138.553116 169.570374,139.334183 166.847565,137.823410 
	C172.832260,131.372360 179.486481,126.918327 187.637909,123.988869 
	C188.022018,124.022491 188.002991,124.002388 187.994293,123.992126 
z"/>
<path fill="#000000" opacity="1.000000" stroke="none" 
	d="
M427.762360,46.558167 
	C429.755524,48.037643 429.385071,49.205875 427.448090,49.118900 
	C419.480988,48.761177 411.505371,48.271523 403.931305,45.152210 
	C411.862091,43.893768 419.622711,45.462727 427.762360,46.558167 
z"/>
<path fill="#000000" opacity="1.000000" stroke="none" 
	d="
M43.426270,424.832397 
	C43.936653,428.590576 46.302364,431.986420 42.998291,436.091370 
	C40.874187,430.501282 40.041176,425.457611 40.315197,419.815460 
	C43.289616,420.754059 43.085773,422.734314 43.426270,424.832397 
z"/>
<path fill="#000000" opacity="1.000000" stroke="none" 
	d="
M626.263184,153.182037 
	C628.836731,155.461563 631.750732,157.251282 630.909546,161.538895 
	C627.088013,160.153778 625.492920,157.364105 624.298584,154.355057 
	C623.760071,152.998413 624.834595,152.738190 626.263184,153.182037 
z"/>
<path fill="#000000" opacity="1.000000" stroke="none" 
	d="
M59.329430,345.658020 
	C57.682350,342.317139 58.143772,339.759583 61.629486,337.798035 
	C64.110008,341.476624 63.179119,343.964874 59.329430,345.658020 
z"/>
<path fill="#000000" opacity="1.000000" stroke="none" 
	d="
M621.929688,148.870819 
	C620.695374,151.816177 619.543762,149.725464 618.657837,148.934387 
	C616.878723,147.345779 614.960388,145.730698 614.706421,142.497101 
	C618.381775,143.545273 620.301880,145.828491 621.929688,148.870819 
z"/>
</svg>