<svg version="1.1" id="Layer_1" xmlns="http://www.w3.org/2000/svg" xmlns:xlink="http://www.w3.org/1999/xlink" x="0px" y="0px"
	 width="100%" viewBox="0 0 750 218" enable-background="new 0 0 750 218" xml:space="preserve">
<path fill="#FEFEFE" opacity="1.000000" stroke="none" 
	d="
M496.000000,219.000000 
	C330.666687,219.000000 165.833374,219.000000 1.000044,219.000000 
	C1.000030,146.333359 1.000030,73.666725 1.000015,1.000064 
	C250.999939,1.000042 500.999878,1.000042 750.999878,1.000021 
	C750.999878,73.666603 750.999878,146.333206 750.999939,218.999908 
	C666.166687,219.000000 581.333313,219.000000 496.000000,219.000000 
M351.528290,179.461884 
	C357.819244,179.461884 364.110168,179.461884 370.779022,179.461884 
	C370.779022,177.084061 370.778381,175.281769 370.779114,173.479477 
	C370.785156,157.980759 370.658722,142.480392 370.849792,126.983948 
	C370.956451,118.334167 375.151062,113.216690 382.474213,111.873184 
	C390.758759,110.353302 396.906464,113.478592 399.915955,121.451500 
	C401.049438,124.454468 401.158142,127.961815 401.186737,131.243988 
	C401.313019,145.741745 401.233063,160.241241 401.249847,174.740067 
	C401.251526,176.175125 401.403198,177.610001 401.485107,179.043060 
	C411.878113,179.043060 421.905609,179.043060 432.154785,179.043060 
	C432.154785,177.801773 432.154755,176.980652 432.154785,176.159546 
	C432.155579,159.660843 432.059326,143.161331 432.196350,126.663765 
	C432.269501,117.855888 437.762695,112.063248 446.152588,111.396011 
	C454.438141,110.737068 461.098724,116.286934 462.328003,125.002701 
	C462.675537,127.466927 462.830872,129.977264 462.839020,132.467209 
	C462.884705,146.465958 462.850739,160.464951 462.867462,174.463821 
	C462.869354,176.045654 463.018585,177.627319 463.097839,179.177643 
	C473.501556,179.177643 483.439667,179.177643 493.053223,179.177643 
	C493.053223,156.610321 493.354736,134.323868 492.797546,112.058899 
	C492.686768,107.632362 490.133820,102.607430 487.254669,99.025948 
	C475.892944,84.892601 453.509430,82.506523 439.075745,93.492882 
	C435.405487,96.286552 432.143402,99.616440 428.475464,102.895058 
	C422.271698,92.242142 412.433533,88.444595 401.005188,87.010651 
	C389.107239,85.517784 379.955811,91.016022 370.566162,98.750740 
	C370.566162,94.922722 370.566162,92.201096 370.566162,89.398033 
	C360.128113,89.398033 350.205017,89.398033 340.056305,89.398033 
	C340.056305,119.417473 340.056305,149.188416 340.056305,179.460846 
	C343.613739,179.460846 347.077332,179.460846 351.528290,179.461884 
M607.390869,131.954971 
	C606.809265,128.026505 606.566467,124.011810 605.592346,120.183205 
	C597.929382,90.066292 562.115845,77.181572 537.066589,95.433243 
	C535.986938,96.219894 534.790588,96.846252 532.861389,98.030487 
	C532.861389,74.053322 532.861389,51.161629 532.861389,28.343170 
	C522.372070,28.343170 512.316650,28.343170 502.241943,28.343170 
	C502.241943,78.785255 502.241943,128.876282 502.241943,179.082336 
	C512.487610,179.082336 522.530212,179.082336 532.990845,179.082336 
	C532.990845,175.813156 532.990845,172.923416 532.990845,169.167648 
	C534.488892,170.452927 535.337463,171.153183 536.155762,171.887222 
	C549.254150,183.636414 568.083862,185.887939 583.417175,177.213669 
	C600.624146,167.479477 607.930054,152.214966 607.390869,131.954971 
M642.771667,97.832115 
	C642.480774,96.503624 641.942200,95.176140 641.936829,93.846497 
	C641.878052,79.348877 641.903137,64.850929 641.904724,50.353069 
	C641.905457,43.064209 641.904785,35.775349 641.904785,28.279156 
	C631.394775,28.279156 621.340698,28.279156 611.111206,28.279156 
	C611.111206,78.681526 611.111206,128.789948 611.111206,179.181244 
	C621.336426,179.181244 631.421936,179.181244 641.905212,179.181244 
	C641.905212,177.275177 641.905212,175.638931 641.905273,174.002670 
	C641.905457,159.338150 641.882690,144.673569 641.913696,130.009109 
	C641.936523,119.233376 650.230347,110.714661 660.570129,110.765984 
	C669.961182,110.812599 676.790833,118.653572 676.863831,129.755417 
	C676.959167,144.252686 676.891235,158.751007 676.893433,173.248886 
	C676.893738,175.183990 676.893494,177.119095 676.893494,179.064209 
	C687.517029,179.064209 697.571655,179.064209 707.674805,179.064209 
	C707.674805,158.345169 707.886353,138.022461 707.573425,117.707840 
	C707.443359,109.264679 704.102295,101.838799 697.358276,96.308090 
	C681.328369,83.162125 660.189453,83.626358 642.771667,97.832115 
M51.553699,167.937042 
	C59.834717,176.942032 69.966743,181.809448 82.307671,182.268677 
	C94.548866,182.724228 104.861191,178.391556 114.313332,169.079941 
	C114.313332,173.436646 114.313332,176.364288 114.313332,179.541687 
	C124.608131,179.541687 134.516510,179.541687 144.664612,179.541687 
	C144.664612,149.538239 144.664612,119.790627 144.664612,89.706451 
	C143.065704,89.627029 141.604721,89.495003 140.143433,89.491646 
	C131.513855,89.471802 122.884209,89.481873 114.094994,89.481873 
	C113.921623,92.416458 113.779381,94.824318 113.600914,97.845154 
	C112.168533,96.954918 111.206528,96.439072 110.332901,95.802025 
	C89.841454,80.859344 62.948128,85.262939 48.157581,105.728294 
	C36.241718,122.216019 35.685799,150.741745 51.553699,167.937042 
M266.036377,182.024689 
	C278.818604,183.314926 289.585938,178.787811 299.545837,169.194595 
	C299.545837,173.507126 299.545837,176.434265 299.545837,179.451080 
	C309.912598,179.451080 319.808807,179.451080 329.703094,179.451080 
	C329.703094,149.376205 329.703094,119.640732 329.703094,89.486870 
	C324.424469,89.486870 319.450623,89.486870 314.476776,89.486870 
	C309.407745,89.486870 304.338684,89.486870 299.280426,89.486870 
	C299.076080,92.703537 298.926331,95.060890 298.746033,97.899048 
	C297.237976,96.901550 296.256500,96.313698 295.340393,95.637375 
	C275.668060,81.114433 248.735901,85.141113 234.130844,104.787056 
	C225.593445,116.271133 223.665619,129.223114 225.101791,143.127106 
	C227.161682,163.069351 245.601456,181.111374 266.036377,182.024689 
M220.924957,117.334793 
	C225.006546,108.903946 229.088135,100.473091 233.243179,91.890495 
	C224.542114,87.912056 216.372025,85.193695 207.507462,87.387939 
	C198.962418,89.503090 192.040161,94.437645 185.411682,102.369392 
	C185.411682,97.012039 185.411682,93.171448 185.411682,89.445709 
	C174.808304,89.445709 164.903549,89.445709 154.787231,89.445709 
	C154.787231,119.466934 154.787231,149.186325 154.787231,179.186798 
	C165.019684,179.186798 175.069641,179.186798 185.601227,179.186798 
	C185.601227,177.291306 185.601364,175.670654 185.601212,174.049988 
	C185.600037,160.568985 185.521851,147.087418 185.619217,133.607117 
	C185.716400,120.149658 193.929855,112.439728 207.322556,113.791046 
	C211.757553,114.238541 216.017319,116.422707 220.924957,117.334793 
M130.948837,66.994820 
	C130.948837,60.398014 130.948837,53.801208 130.948837,47.184952 
	C106.820007,47.184952 83.269112,47.184952 59.625946,47.184952 
	C59.625946,54.340813 59.625946,61.210545 59.625946,68.252663 
	C60.766171,68.335823 61.576164,68.446045 62.386223,68.446510 
	C84.026772,68.458946 105.667343,68.468956 127.307846,68.437897 
	C128.431595,68.436279 129.554825,68.067970 130.948837,66.994820 
z"/>
<path fill="#030303" opacity="1.000000" stroke="none" 
	d="
M351.034607,179.461365 
	C347.077332,179.460846 343.613739,179.460846 340.056305,179.460846 
	C340.056305,149.188416 340.056305,119.417473 340.056305,89.398033 
	C350.205017,89.398033 360.128113,89.398033 370.566162,89.398033 
	C370.566162,92.201096 370.566162,94.922722 370.566162,98.750740 
	C379.955811,91.016022 389.107239,85.517784 401.005188,87.010651 
	C412.433533,88.444595 422.271698,92.242142 428.475464,102.895058 
	C432.143402,99.616440 435.405487,96.286552 439.075745,93.492882 
	C453.509430,82.506523 475.892944,84.892601 487.254669,99.025948 
	C490.133820,102.607430 492.686768,107.632362 492.797546,112.058899 
	C493.354736,134.323868 493.053223,156.610321 493.053223,179.177643 
	C483.439667,179.177643 473.501556,179.177643 463.097839,179.177643 
	C463.018585,177.627319 462.869354,176.045654 462.867462,174.463821 
	C462.850739,160.464951 462.884705,146.465958 462.839020,132.467209 
	C462.830872,129.977264 462.675537,127.466927 462.328003,125.002701 
	C461.098724,116.286934 454.438141,110.737068 446.152588,111.396011 
	C437.762695,112.063248 432.269501,117.855888 432.196350,126.663765 
	C432.059326,143.161331 432.155579,159.660843 432.154785,176.159546 
	C432.154755,176.980652 432.154785,177.801773 432.154785,179.043060 
	C421.905609,179.043060 411.878113,179.043060 401.485107,179.043060 
	C401.403198,177.610001 401.251526,176.175125 401.249847,174.740067 
	C401.233063,160.241241 401.313019,145.741745 401.186737,131.243988 
	C401.158142,127.961815 401.049438,124.454468 399.915955,121.451500 
	C396.906464,113.478592 390.758759,110.353302 382.474213,111.873184 
	C375.151062,113.216690 370.956451,118.334167 370.849792,126.983948 
	C370.658722,142.480392 370.785156,157.980759 370.779114,173.479477 
	C370.778381,175.281769 370.779022,177.084061 370.779022,179.461884 
	C364.110168,179.461884 357.819244,179.461884 351.034607,179.461365 
z"/>
<path fill="#020202" opacity="1.000000" stroke="none" 
	d="
M607.427734,132.388931 
	C607.930054,152.214966 600.624146,167.479477 583.417175,177.213669 
	C568.083862,185.887939 549.254150,183.636414 536.155762,171.887222 
	C535.337463,171.153183 534.488892,170.452927 532.990845,169.167648 
	C532.990845,172.923416 532.990845,175.813156 532.990845,179.082336 
	C522.530212,179.082336 512.487610,179.082336 502.241943,179.082336 
	C502.241943,128.876282 502.241943,78.785255 502.241943,28.343170 
	C512.316650,28.343170 522.372070,28.343170 532.861389,28.343170 
	C532.861389,51.161629 532.861389,74.053322 532.861389,98.030487 
	C534.790588,96.846252 535.986938,96.219894 537.066589,95.433243 
	C562.115845,77.181572 597.929382,90.066292 605.592346,120.183205 
	C606.566467,124.011810 606.809265,128.026505 607.427734,132.388931 
M572.675476,125.098457 
	C572.078552,124.099327 571.566589,123.036392 570.871399,122.111115 
	C565.135498,114.477158 557.312988,112.083603 548.325012,114.056747 
	C540.387939,115.799194 535.015686,121.063759 533.153137,128.946457 
	C531.063110,137.791748 532.895569,145.822311 540.525208,151.718735 
	C547.712830,157.273560 558.863220,157.423096 566.187195,152.122498 
	C574.289307,146.258698 576.784790,136.592590 572.675476,125.098457 
z"/>
<path fill="#030303" opacity="1.000000" stroke="none" 
	d="
M643.130249,97.653381 
	C660.189453,83.626358 681.328369,83.162125 697.358276,96.308090 
	C704.102295,101.838799 707.443359,109.264679 707.573425,117.707840 
	C707.886353,138.022461 707.674805,158.345169 707.674805,179.064209 
	C697.571655,179.064209 687.517029,179.064209 676.893494,179.064209 
	C676.893494,177.119095 676.893738,175.183990 676.893433,173.248886 
	C676.891235,158.751007 676.959167,144.252686 676.863831,129.755417 
	C676.790833,118.653572 669.961182,110.812599 660.570129,110.765984 
	C650.230347,110.714661 641.936523,119.233376 641.913696,130.009109 
	C641.882690,144.673569 641.905457,159.338150 641.905273,174.002670 
	C641.905212,175.638931 641.905212,177.275177 641.905212,179.181244 
	C631.421936,179.181244 621.336426,179.181244 611.111206,179.181244 
	C611.111206,128.789948 611.111206,78.681526 611.111206,28.279156 
	C621.340698,28.279156 631.394775,28.279156 641.904785,28.279156 
	C641.904785,35.775349 641.905457,43.064209 641.904724,50.353069 
	C641.903137,64.850929 641.878052,79.348877 641.936829,93.846497 
	C641.942200,95.176140 642.480774,96.503624 643.130249,97.653381 
z"/>
<path fill="#040404" opacity="1.000000" stroke="none" 
	d="
M51.315205,167.674713 
	C35.685799,150.741745 36.241718,122.216019 48.157581,105.728294 
	C62.948128,85.262939 89.841454,80.859344 110.332901,95.802025 
	C111.206528,96.439072 112.168533,96.954918 113.600914,97.845154 
	C113.779381,94.824318 113.921623,92.416458 114.094994,89.481873 
	C122.884209,89.481873 131.513855,89.471802 140.143433,89.491646 
	C141.604721,89.495003 143.065704,89.627029 144.664612,89.706451 
	C144.664612,119.790627 144.664612,149.538239 144.664612,179.541687 
	C134.516510,179.541687 124.608131,179.541687 114.313332,179.541687 
	C114.313332,176.364288 114.313332,173.436646 114.313332,169.079941 
	C104.861191,178.391556 94.548866,182.724228 82.307671,182.268677 
	C69.966743,181.809448 59.834717,176.942032 51.315205,167.674713 
M77.333023,149.115402 
	C85.506470,156.941498 97.099808,158.280777 105.571686,152.377533 
	C113.682037,146.726196 116.998405,135.132843 112.836281,126.132675 
	C109.278397,118.439125 103.327530,113.957062 94.627899,113.527397 
	C85.590942,113.081070 78.613106,116.695702 74.567131,124.720612 
	C70.423973,132.938293 71.183174,141.080276 77.333023,149.115402 
z"/>
<path fill="#040304" opacity="1.000000" stroke="none" 
	d="
M265.610962,181.986420 
	C245.601456,181.111374 227.161682,163.069351 225.101791,143.127106 
	C223.665619,129.223114 225.593445,116.271133 234.130844,104.787056 
	C248.735901,85.141113 275.668060,81.114433 295.340393,95.637375 
	C296.256500,96.313698 297.237976,96.901550 298.746033,97.899048 
	C298.926331,95.060890 299.076080,92.703537 299.280426,89.486870 
	C304.338684,89.486870 309.407745,89.486870 314.476776,89.486870 
	C319.450623,89.486870 324.424469,89.486870 329.703094,89.486870 
	C329.703094,119.640732 329.703094,149.376205 329.703094,179.451080 
	C319.808807,179.451080 309.912598,179.451080 299.545837,179.451080 
	C299.545837,176.434265 299.545837,173.507126 299.545837,169.194595 
	C289.585938,178.787811 278.818604,183.314926 265.610962,181.986420 
M265.411957,117.818527 
	C256.732361,125.962677 254.905273,138.858017 261.213837,147.448029 
	C267.502075,156.010345 280.104401,158.595688 289.374603,153.225174 
	C299.472717,147.375031 302.912445,133.744324 296.832062,123.673294 
	C290.363312,112.958961 277.397614,110.311852 265.411957,117.818527 
z"/>
<path fill="#040404" opacity="1.000000" stroke="none" 
	d="
M220.641083,117.573822 
	C216.017319,116.422707 211.757553,114.238541 207.322556,113.791046 
	C193.929855,112.439728 185.716400,120.149658 185.619217,133.607117 
	C185.521851,147.087418 185.600037,160.568985 185.601212,174.049988 
	C185.601364,175.670654 185.601227,177.291306 185.601227,179.186798 
	C175.069641,179.186798 165.019684,179.186798 154.787231,179.186798 
	C154.787231,149.186325 154.787231,119.466934 154.787231,89.445709 
	C164.903549,89.445709 174.808304,89.445709 185.411682,89.445709 
	C185.411682,93.171448 185.411682,97.012039 185.411682,102.369392 
	C192.040161,94.437645 198.962418,89.503090 207.507462,87.387939 
	C216.372025,85.193695 224.542114,87.912056 233.243179,91.890495 
	C229.088135,100.473091 225.006546,108.903946 220.641083,117.573822 
z"/>
<path fill="#030303" opacity="1.000000" stroke="none" 
	d="
M130.813568,67.432602 
	C129.554825,68.067970 128.431595,68.436279 127.307846,68.437897 
	C105.667343,68.468956 84.026772,68.458946 62.386223,68.446510 
	C61.576164,68.446045 60.766171,68.335823 59.625946,68.252663 
	C59.625946,61.210545 59.625946,54.340813 59.625946,47.184952 
	C83.269112,47.184952 106.820007,47.184952 130.948837,47.184952 
	C130.948837,53.801208 130.948837,60.398014 130.813568,67.432602 
z"/>
<path fill="#FBFBFB" opacity="1.000000" stroke="none" 
	d="
M572.828247,125.452972 
	C576.784790,136.592590 574.289307,146.258698 566.187195,152.122498 
	C558.863220,157.423096 547.712830,157.273560 540.525208,151.718735 
	C532.895569,145.822311 531.063110,137.791748 533.153137,128.946457 
	C535.015686,121.063759 540.387939,115.799194 548.325012,114.056747 
	C557.312988,112.083603 565.135498,114.477158 570.871399,122.111115 
	C571.566589,123.036392 572.078552,124.099327 572.828247,125.452972 
z"/>
<path fill="#FBFBFB" opacity="1.000000" stroke="none" 
	d="
M77.108322,148.828659 
	C71.183174,141.080276 70.423973,132.938293 74.567131,124.720612 
	C78.613106,116.695702 85.590942,113.081070 94.627899,113.527397 
	C103.327530,113.957062 109.278397,118.439125 112.836281,126.132675 
	C116.998405,135.132843 113.682037,146.726196 105.571686,152.377533 
	C97.099808,158.280777 85.506470,156.941498 77.108322,148.828659 
z"/>
<path fill="#FBFBFB" opacity="1.000000" stroke="none" 
	d="
M265.706726,117.598694 
	C277.397614,110.311852 290.363312,112.958961 296.832062,123.673294 
	C302.912445,133.744324 299.472717,147.375031 289.374603,153.225174 
	C280.104401,158.595688 267.502075,156.010345 261.213837,147.448029 
	C254.905273,138.858017 256.732361,125.962677 265.706726,117.598694 
z"/>
</svg>